<?xml version="1.0" encoding="UTF-8" standalone="no"?>
<!-- Created with Inkscape (http://www.inkscape.org/) -->

<svg
   version="1.1"
   id="svg32"
   width="254.66667"
   height="141.33333"
   viewBox="0 0 254.66667 141.33333"
   xmlns="http://www.w3.org/2000/svg"
   xmlns:svg="http://www.w3.org/2000/svg">
  <defs
     id="defs36" />
  <g
     id="g38"
     style="fill:#ffffff">
    <path
       style="fill:#ffffff;stroke-width:1.33333"
       d="m 144,134.89146 c -4.26953,-1.29529 -7.45452,-3.06038 -7.62341,-4.2248 -0.15955,-1.1 -0.95289,-4.7 -1.763,-8 -2.6098,-10.63104 -2.90094,-14.30506 -1.3615,-17.18153 1.98058,-3.70075 5.41458,-3.64565 5.41458,0.0869 0,7.52013 6.34968,18.428 10.72731,18.428 1.23552,0 3.82732,-1.24355 5.75954,-2.76344 2.67271,-2.10235 3.51315,-3.95237 3.51315,-7.73334 0,-2.73344 0.53905,-5.53989 1.19789,-6.23656 0.65884,-0.69666 1.49438,-6.73565 1.85674,-13.419958 0.36236,-6.684313 1.35105,-13.446713 2.1971,-15.027556 0.84604,-1.580842 1.18215,-3.450454 0.7469,-4.154693 -1.4181,-2.294523 5.23416,-19.025445 9.10269,-22.893982 5.02241,-5.022404 12.42455,-5.214305 17.19312,-0.445732 6.75551,6.755504 11.96555,31.635891 7.02192,33.532939 -3.28917,1.262175 -5.28969,-1.545227 -7.18324,-10.080534 -1.96568,-8.860403 -3.80957,-11.202363 -8.30331,-10.546164 -3.16848,0.462677 -4.46054,3.341602 -6.62836,14.769018 -0.6608,3.483333 -1.77733,9.183333 -2.48117,12.666667 -0.70385,3.483333 -1.87563,9.938085 -2.60395,14.343905 -1.97244,11.93193 -8.28489,24.6883 -14.01542,28.32276 -2.6016,1.65 -4.88859,2.95116 -5.08222,2.89147 -0.19361,-0.0597 -3.65202,-1.1097 -7.68536,-2.33334 z m 39.33334,-4.2248 c -0.45323,-0.73333 -2.25323,-1.33333 -4,-1.33333 -1.74678,0 -3.52818,-0.5699 -3.95866,-1.26644 -1.04729,-1.69456 4.03636,-4.30887 7.69814,-3.95882 4.469,0.42721 16.8949,-1.64382 17.70246,-2.95048 0.3935,-0.63668 1.62192,-1.15759 2.72984,-1.15759 1.10794,0 4.63063,-1.8 7.82822,-4 3.19758,-2.2 6.93597,-4 8.30752,-4 2.8786,0 15.44656,-10.04883 17.50965,-14.000002 0.76581,-1.466667 1.57024,-5.366667 1.78761,-8.666667 l 0.39522,-6 -11.75602,-0.803633 c -7.39045,-0.505207 -12.42298,-1.495464 -13.55209,-2.666667 -1.71724,-1.781258 -2.58839,-8.954245 -2.20429,-18.149971 0.24596,-5.888571 7.18664,-13.713061 12.1641,-13.713061 6.1785,0 11.69486,3.145848 16.47602,9.39588 5.47258,7.153873 6.66864,11.228222 6.64164,22.624867 -0.0227,9.560409 -4.42084,25.646814 -8.19666,29.979254 -3.65268,4.19117 -15.89872,14 -17.47858,14 -0.7851,0 -1.42746,0.57281 -1.42746,1.27291 0,0.70011 -2.25,1.63348 -5,2.07416 -2.75,0.44069 -6.97036,1.66787 -9.37857,2.72709 -4.97175,2.18674 -21.03883,2.61387 -22.28809,0.5925 z M 39.001886,114.40337 c -7.459043,-1.61462 -11.344899,-3.72541 -17.724164,-9.62772 -5.156212,-4.77071 -7.211355,-9.80296 -3.40732,-8.343215 1.02872,0.394756 2.97872,-0.121973 4.333333,-1.148277 2.78454,-2.109682 7.129599,-2.56627 7.129599,-0.749195 0,0.660897 2.25,2.538111 5,4.171585 4.502925,2.674692 5.584669,2.815152 10.881099,1.412802 4.06854,-1.077238 6.308133,-1.13012 7.266666,-0.171587 1.769679,1.769677 9.767006,1.808167 10.852235,0.05224 0.453226,-0.733331 2.288635,-1.333331 4.07869,-1.333331 1.936086,0 3.254644,-0.773861 3.254644,-1.910149 0,-1.050583 1.2,-2.291016 2.666666,-2.756517 1.466667,-0.465502 2.666667,-1.463312 2.666667,-2.217356 0,-0.754044 1.1142,-2.963612 2.476,-4.910151 1.651012,-2.359933 2.396163,-5.538322 2.236388,-9.539159 -0.131787,-3.3 -0.345985,-8.507143 -0.476,-11.571428 -0.130013,-3.064287 -1.195972,-6.531013 -2.368797,-7.703839 -1.705163,-1.705162 -1.806026,-2.52568 -0.503408,-4.095238 1.32045,-1.591046 1.219256,-1.962828 -0.534256,-1.962828 -1.274371,0 -2.16326,-1.09574 -2.16326,-2.666667 0,-2.608586 1.140654,-3.184182 5.484017,-2.767338 1.564707,0.150169 2.35342,-1.305106 2.894779,-5.341239 0.887232,-6.614809 3.621204,-10.322984 3.621204,-4.911556 0,1.932261 -0.598727,5.087973 -1.330506,7.012695 -1.037282,2.728258 -0.736092,4.80431 1.366659,9.420131 1.483439,3.256352 3.313379,5.92064 4.066531,5.92064 0.753152,0 1.996852,1.8 2.763776,4 1.042501,2.990521 2.286845,4.051253 4.93064,4.203085 1.944932,0.111694 4.136232,0.342488 4.869562,0.512868 0.73334,0.170379 2.70217,0.378991 4.37518,0.46358 3.88699,0.196531 5.12909,3.430712 2.91002,7.577082 -1.95294,3.649109 -6.10032,4.224581 -9.98334,1.385245 -1.769765,-1.294083 -3.492462,-1.496457 -5.674974,-0.666667 -4.543373,1.727387 -4.708832,1.601224 -3.80788,-2.903532 0.682233,-3.411169 0.431744,-4.017601 -1.5,-3.63149 -1.822999,0.364376 -2.32787,1.881898 -2.360464,7.095005 -0.04065,6.501262 -0.606504,9.616873 -3.558462,19.592922 -1.920252,6.489422 -10.609065,14.371892 -15.842085,14.371892 -2.140228,0 -3.891324,0.6 -3.891324,1.33335 0,0.73332 -1.16459,1.33333 -2.587978,1.33333 -1.423388,0 -2.895146,0.49701 -3.270574,1.10447 -0.923928,1.49494 -12.167756,1.47472 -19.139563,-0.0344 z M 14.666667,93.599951 c 0,-0.708915 -1.108496,-1.578815 -2.463325,-1.93311 C 7.9494869,90.554433 6.741501,74.574564 9.4429961,55.151533 11.40162,41.069548 16.15351,31.999999 21.572984,31.999999 c 2.881903,0 5.554975,5.779448 4.38216,9.474661 -0.428688,1.350678 -2.393968,3.725599 -4.367288,5.277602 -1.973321,1.552002 -3.68889,4.117654 -3.812377,5.701446 -0.123493,1.583793 -0.899099,5.530164 -1.723583,8.769713 -0.824484,3.239548 -1.163098,6.765597 -0.752474,7.835664 0.410622,1.070067 0.06911,2.761885 -0.758919,3.759597 -0.861488,1.038031 -1.06318,2.819427 -0.471492,4.164336 0.568707,1.292672 1.085832,2.822199 1.149167,3.398947 0.06333,0.576746 0.839436,1.496261 1.724666,2.043364 2.052099,1.268266 1.497315,11.205727 -0.665842,11.926779 -0.885684,0.295228 -1.610335,-0.04324 -1.610335,-0.752157 z M 129.33334,76.713577 c 0,-1.074199 1.24541,-2.619615 2.76759,-3.434259 2.76555,-1.480081 4.64433,-2.950872 10.94775,-8.570428 5.40778,-4.821067 7.61799,-5.171802 7.61799,-1.208886 0,2.31733 -0.87501,3.645133 -2.72007,4.127626 -1.49602,0.391222 -3.62477,2.460827 -4.73052,4.599122 -2.87742,5.564322 -13.88274,9.121179 -13.88274,4.486825 z m -4.76561,-3.823956 c -0.52719,-1.373828 -2.34245,-2.222956 -4.75223,-2.222956 -2.54952,0 -4.14916,-0.807661 -4.62134,-2.333333 -0.39719,-1.283334 -1.2167,-3.276464 -1.82114,-4.42918 -1.31537,-2.508492 -0.1759,-14.329256 1.47992,-15.352608 0.64124,-0.39631 1.51606,0.367466 1.94405,1.697279 0.42798,1.329813 1.39451,3.71063 2.14785,5.290705 0.75333,1.580075 0.96351,3.530075 0.46707,4.333333 -0.49644,0.803259 -0.27474,1.460471 0.49268,1.460471 2.44985,0 8.49059,10.804825 6.91924,12.376174 -0.98188,0.981874 -1.65915,0.735747 -2.2561,-0.819885 z m -22.9483,-38.017926 c -0.94265,-0.598108 -2.057555,-3.205084 -2.477561,-5.793278 -1.067124,-6.575911 3.094531,-10.512037 9.995621,-9.453931 7.03441,1.07855 8.37337,2.474231 6.53334,6.810096 -3.39223,7.993473 -9.22801,11.497542 -14.0514,8.437113 z m 33.37121,-0.414394 c -2.31052,-2.310514 -2.02386,-3.892274 1.48155,-8.175152 2.0554,-2.511272 3.77443,-3.437154 5.29689,-2.852932 2.82094,1.082497 4.39636,6.947876 2.62611,9.777152 -1.68363,2.690825 -7.22728,3.428206 -9.40455,1.250932 z M 120.28697,18.333333 c -0.75509,-0.916667 -1.57855,-3.747232 -1.82993,-6.290145 -0.39008,-3.9460813 0.0833,-4.8861606 3.23109,-6.4163731 4.96571,-2.4139646 8.05759,-1.1722774 10.0512,4.0365255 1.5371,4.0160856 1.40546,4.5584246 -1.78078,7.3366596 -3.82925,3.338893 -7.59222,3.85766 -9.67158,1.333333 z"
       id="path1151" />
  </g>
</svg>
