<?xml version="1.0" encoding="UTF-8" standalone="no"?>
<!-- Created with Inkscape (http://www.inkscape.org/) -->

<svg
   version="1.1"
   id="svg2"
   width="217.33333"
   height="144"
   viewBox="0 0 217.33333 144"
   xmlns="http://www.w3.org/2000/svg"
   xmlns:svg="http://www.w3.org/2000/svg">
  <defs
     id="defs6" />
  <g
     id="g8"
     style="fill:#ffffff">
    <path
       style="fill:#ffffff;stroke-width:1.33333"
       d="M 26.226849,135.16907 C 9.2377524,129.94945 -0.35312321,107.65407 8.6751965,94.367699 12.10112,89.325999 21.118956,82.362701 27.232452,80.038355 31.836568,78.287873 31.564076,76.364797 25.88832,70.552296 21.753764,66.318127 21.01083,64.565457 20.374113,57.54362 c -0.712756,-7.860395 -0.59412,-8.256361 3.778345,-12.610733 6.062882,-6.037795 16.451519,-9.19744 28.514208,-8.672435 l 9.333333,0.406215 0.406189,4.177502 c 0.345682,3.555203 -0.150868,4.361958 -3.333333,5.415758 -2.056737,0.681041 -6.139522,0.809321 -9.072856,0.285068 -8.762162,-1.565999 -16.789528,0.5854 -20.999249,5.627965 -4.01458,4.80882 -4.450598,7.316003 -2.150302,12.364603 1.599253,3.50998 7.206545,6.142202 13.015182,6.1097 4.847335,-0.02712 14.221975,-3.472644 18.940818,-6.961438 5.142272,-3.801845 8.526884,-2.038853 8.526884,4.441524 0,5.744439 -2.528672,7.017274 -21.489062,10.816759 -11.296839,2.26378 -15.182882,3.646013 -18.541765,6.595151 -4.784556,4.200896 -8.095847,12.075378 -9.016656,21.442251 -0.562967,5.72672 -0.133384,6.96848 4.612635,13.33333 6.838272,9.17075 11.838722,11.65447 23.831441,11.83702 10.139639,0.15434 10.612729,1.11625 1.782048,3.62337 -7.164594,2.0341 -14.325435,1.83932 -22.285124,-0.60616 z m 43.106483,-20.11658 c -15.990643,-2.80327 -26.904133,-9.62607 -24.019401,-15.01624 1.798544,-3.360607 4.268338,-3.444471 7.165355,-0.243303 3.197372,3.533053 11.670061,5.975913 17.681582,5.097973 14.548797,-2.12474 19.115651,-3.42025 25.839131,-7.329956 8.075791,-4.69608 13.333331,-8.771867 13.333331,-10.336367 0,-0.558042 0.98167,-2.099357 2.18149,-3.425144 2.02816,-2.241085 2.00473,-2.47593 -0.33333,-3.341065 C 109.79834,79.946588 108.36667,79.163395 108,78.717956 105.12047,75.219816 98.934298,72 95.092915,72 c -3.084168,0 -5.630178,-1.082716 -7.912206,-3.364744 -3.088121,-3.088121 -3.289509,-3.992456 -2.449604,-11 1.453864,-12.129971 8.635646,-19.497084 16.556015,-16.983257 2.54467,0.807646 7.28831,6.765256 11.70692,14.702897 0.91339,1.640823 3.4435,3.721769 5.62246,4.624325 2.17896,0.902556 4.61778,2.43148 5.4196,3.397611 1.1807,1.422661 2.95153,0.992119 9.31495,-2.264753 4.32141,-2.211744 8.56932,-4.879519 9.43981,-5.92839 0.87048,-1.048869 1.64864,-6.244282 1.72924,-11.545362 C 144.66228,34.288624 144.76636,34 147.9959,34 c 2.77826,0 3.9758,1.379155 7.23602,8.333333 2.14872,4.583334 4.42057,8.333334 5.04853,8.333334 0.62797,0 3.18912,-1.95 5.69143,-4.333334 4.88968,-4.657189 5.50708,-5.172638 12.86664,-10.741968 5.69922,-4.312878 19.9081,-6.402886 25.00072,-3.677401 5.22674,2.797269 8.15268,9.305092 8.1315,18.086036 -0.016,6.658783 -0.68581,8.983667 -3.99501,13.867308 C 205.78908,67.094327 204,70.451335 204,71.327324 c 0,0.875991 -1.14948,2.632976 -2.5544,3.904413 -2.14874,1.94457 -4.31922,2.196219 -13.66667,1.584534 -6.11175,-0.399946 -12.76227,-0.97222 -14.77893,-1.271722 -2.01667,-0.299502 -5.12395,-0.619549 -6.90507,-0.711216 -4.70425,-0.242108 -12.7616,-8.303844 -12.7616,-12.768546 0,-5.126716 -2.74155,-3.713182 -6.22452,3.20935 -3.75343,7.460078 -5.58299,9.12306 -10.44215,9.491428 -6.76838,0.513103 -8.18477,0.01929 -9.74092,-3.396077 -1.47695,-3.241559 -1.56906,-3.258861 -5.46022,-1.025643 -4.00325,2.297552 -5.54821,6.056415 -7.51078,18.273604 -0.73566,4.579523 -9.50752,17.607801 -12.88485,19.137031 -0.51157,0.23163 -3.511567,2.17072 -6.666671,4.30907 -4.865874,3.29782 -6.950775,3.86405 -13.736554,3.73061 -4.4,-0.0865 -9.499999,-0.42027 -11.333333,-0.74167 z M 201.80358,58.313037 c 2.71671,-3.645788 2.7191,-3.735129 0.21339,-8 -5.13708,-8.743644 -6.65717,-9.156413 -18.01697,-4.89236 -13.61704,5.111342 -17.31084,7.074656 -18.12267,9.63249 -1.66608,5.249333 5.41885,7.486216 22.65077,7.151396 9.83787,-0.191152 10.70822,-0.446283 13.27548,-3.891526 z M 45.455918,19.463819 c -3.828907,-4.075684 -3.231275,-8.75445 1.452964,-11.3750389 3.264399,-1.8262625 3.815535,-1.7831498 6.333333,0.4954262 3.314649,2.9997157 3.503431,6.3716147 0.604438,10.7960377 -2.699891,4.120553 -4.580592,4.139287 -8.390735,0.08357 z"
       id="path30" />
  </g>
</svg>
