<?xml version="1.0" encoding="UTF-8" standalone="no"?>
<!-- Created with Inkscape (http://www.inkscape.org/) -->

<svg
   version="1.1"
   id="svg92"
   width="241.33333"
   height="132"
   viewBox="0 0 241.33333 132"
   xmlns="http://www.w3.org/2000/svg"
   xmlns:svg="http://www.w3.org/2000/svg">
  <defs
     id="defs96" />
  <g
     id="g98"
     style="fill:#ffffff">
    <path
       style="fill:#ffffff;stroke-width:1.33333"
       d="m 71.191632,119.24345 c -1.182316,-4.71072 1.067159,-11.79505 3.919696,-12.3444 6.137616,-1.18199 8.631436,8.69847 3.351324,13.27789 -3.940094,3.41723 -6.253608,3.12021 -7.27102,-0.93349 z m 19.521945,0.8442 c -3.457498,-6.46039 -0.358252,-11.2054 6.86599,-10.51196 3.693313,0.35452 4.489313,1.02212 4.839203,4.05862 0.33468,2.90445 -0.46862,4.17533 -3.999998,6.32834 -5.458532,3.32797 -5.986437,3.33653 -7.705195,0.125 z M 15.776302,99.633364 C 10.055372,96.275532 8.6651012,91.818803 10.759244,83.550397 11.890645,79.083233 13.378328,77.219347 18.382008,74 c 3.419356,-2.2 7.115364,-5.6144 8.213352,-7.587556 1.949377,-3.503161 1.848234,-3.727457 -4.29951,-9.534552 -7.726069,-7.297964 -8.168289,-10.898275 -1.672009,-13.612595 7.160445,-2.991824 8.572763,-2.472021 11.436701,4.209278 2.420214,5.646126 2.926994,6.069589 6.285951,5.252498 2.009428,-0.488808 4.621177,-2.138658 5.803886,-3.666334 2.073351,-2.678095 5.182954,-2.382826 5.182954,0.492142 0,0.767527 -1.447963,3.116308 -3.217694,5.219515 -2.023824,2.405177 -2.95528,4.827487 -2.51044,6.528553 0.764916,2.925047 13.350011,16.1034 20.182399,21.133795 4.671572,3.43948 5.524866,8.062315 2.117162,11.470017 -3.413984,3.413986 -7.134254,2.428262 -12.221047,-3.238094 -2.633308,-2.933334 -5.439406,-5.325907 -6.235774,-5.316828 -0.796366,0.0091 -2.76894,2.056424 -4.383497,4.549657 -7.065984,10.911454 -18.396058,14.952974 -27.28814,9.733868 z M 39.666666,87.636871 c 2.492157,-2.392462 4.333333,-5.498359 4.333333,-7.309944 0,-3.459706 -7.49771,-13.66026 -10.040697,-13.66026 -0.876914,0 -4.376496,2.974296 -7.776846,6.609545 C 21.27433,78.523395 20,80.843844 20,84.53394 c 0,9.581729 11.094498,11.332176 19.666666,3.102931 z m 37.855662,7.457854 c -2.729985,-0.565522 -3.034818,-1.198942 -2.313256,-4.80676 1.14317,-5.715845 2.875774,-6.507756 12.226772,-5.588416 11.507961,1.131403 12.223607,-0.182152 7.202887,-13.220762 -2.184636,-5.673415 -3.972066,-12.034226 -3.972066,-14.135138 0,-4.559673 3.072827,-8.010316 7.133254,-8.010316 2.516371,0 3.276991,1.30411 5.249291,9 1.26858,4.95 2.30148,9.852756 2.29532,10.895012 -0.006,1.042258 0.9479,2.954807 2.12014,4.25011 1.96771,2.174301 1.86577,2.703257 -1.32787,6.890341 -1.90256,2.494385 -4.11181,6.40732 -4.90944,8.695412 -0.79764,2.288091 -2.450096,4.449035 -3.672136,4.802099 -3.861207,1.115552 -16.759625,1.906482 -20.032896,1.228418 z m 62.617762,-0.561966 c -1.75628,-0.691055 -4.30669,-0.903066 -5.66759,-0.471136 -3.25373,1.032694 -9.90064,-3.760978 -12.7106,-9.16674 -2.92067,-5.618735 -7.04585,-28.711606 -7.07329,-39.596528 -0.0121,-4.785906 -0.65609,-13.759031 -1.43115,-19.940278 -1.5494,-12.356675 -1.03052,-16.6482107 2.16095,-17.8728939 2.67766,-1.027512 6.6654,1.0727502 7.83782,4.1280109 0.49681,1.294668 1.15132,5.961335 1.45447,10.370374 3.61414,52.563849 4.56782,57.980925 10.22126,58.058567 3.41142,0.04685 10.37666,5.532796 10.44573,8.227244 0.0271,1.058381 0.93348,0.677352 2.33333,-0.980923 1.25894,-1.491349 4.17971,-3.489593 6.4906,-4.440541 7.96824,-3.278978 12.00756,-9.830835 13.6078,-22.072151 0.47148,-3.606664 1.61427,-6.809007 2.53954,-7.116319 1.0153,-0.337221 3.31178,2.923435 5.79233,8.224238 4.2922,9.172213 6.97597,10.843925 9.28404,5.782984 1.17091,-2.567474 10.60107,-9.569124 20.59905,-15.294266 1.56328,-0.895178 6.09732,-1.982289 10.07564,-2.415801 9.73894,-1.061239 14.42296,2.493792 15.97207,12.122316 1.21173,7.531599 -0.0231,12.219297 -6.12589,23.254417 l -4.05555,7.333334 -17.27867,0.41119 c -13.9903,0.332938 -18.0399,-0.0013 -21.27865,-1.756668 -3.75361,-2.034328 -10,-9.99658 -10,-12.746976 0,-2.807174 -2.46092,-0.95004 -4.09785,3.092454 -3.0133,7.441445 -6.79399,11.597697 -11.14142,12.248149 -10.90573,1.631692 -15.01788,1.773225 -17.95397,0.617943 z M 223,78.554853 c 4.63289,-5.659292 2.03405,-16.135378 -4.57424,-18.439038 -3.14118,-1.09502 -5.6898,-0.682594 -13.48288,2.181838 -12.51482,4.599956 -19.60955,10.153108 -19.60955,15.348683 0,3.070173 0.48065,3.717187 2.33333,3.140905 1.28334,-0.399186 6.23334,-0.183364 11,0.479607 12.61551,1.754621 21.48615,0.765972 24.33334,-2.711995 z"
       id="path285" />
  </g>
</svg>
