<?xml version="1.0" encoding="UTF-8" standalone="no"?>
<!-- Created with Inkscape (http://www.inkscape.org/) -->

<svg
   version="1.1"
   id="svg102"
   width="200"
   height="137.33333"
   viewBox="0 0 200 137.33333"
   xmlns="http://www.w3.org/2000/svg"
   xmlns:svg="http://www.w3.org/2000/svg">
  <defs
     id="defs106" />
  <g
     id="g108"
     style="fill:#ffffff">
    <path
       style="fill:#ffffff;stroke-width:1.33333"
       d="m 92.41962,131.44365 c -5.571768,-2.50448 -8.321131,-8.12447 -9.003803,-18.40472 -0.305782,-4.60475 -0.912674,-9.28948 -1.348648,-10.41052 -0.435972,-1.12105 0.10916,-3.221046 1.211406,-4.666671 1.732189,-2.271812 2.185644,-2.357068 3.342337,-0.628408 0.73604,1.1 1.347441,3.407429 1.358671,5.127609 0.02053,3.14456 3.035677,9.53465 6.545652,13.87239 2.633322,3.25435 8.473025,2.9228 11.742395,-0.66667 4.14938,-4.55563 5.93751,-8.678 8.5216,-19.645737 4.76214,-20.212117 8.01616,-32.774305 9.40373,-36.303282 2.53939,-6.458365 15.19517,-14.384309 22.96821,-14.384309 4.07078,0 4.73399,0.487374 5.5175,4.054612 1.10648,5.037784 -1.08054,7.945388 -5.9763,7.945388 -7.84174,0 -11.79282,2.56186 -15.08543,9.781325 -4.51665,9.903334 -8.05953,29.135525 -6.97148,37.844003 1.37168,10.97856 -1.85802,18.01368 -10.55383,22.98891 -8.4916,4.8584 -15.960678,6.06329 -21.67201,3.49608 z m 84.91371,-15.0255 c -6.17732,-1.89378 -8,-3.65042 -8,-7.71013 0,-5.48479 2.10646,-7.37469 8.21976,-7.37469 5.66402,0 8.23614,3.04546 7.52911,8.9147 -0.45843,3.80556 -4.62913,7.12653 -7.74887,6.17012 z M 45.772379,108.29956 c -3.502191,-2.22778 -3.161667,-7.52442 0.777025,-12.086153 3.785299,-4.384075 3.898931,-4.417941 7.314481,-2.179987 4.98915,3.269018 5.156743,9.13445 0.36965,12.93693 -3.113576,2.47317 -5.959855,2.92031 -8.461156,1.32921 z m -25.53996,-4.71883 c -3.675978,-3.912899 -3.637338,-5.08901 0.288354,-8.777006 2.288295,-2.149741 4.450986,-2.873514 7.666667,-2.565752 4.238423,0.405646 4.471167,0.696188 4.329296,5.404422 -0.269953,8.958876 -6.580708,12.009546 -12.284317,5.938336 z M 157.33333,82.666665 c -5.09377,-5.093778 -2.18006,-13.333333 4.71499,-13.333333 3.41141,0 5.95168,3.377117 5.95168,7.912345 0,2.847954 -4.31909,8.087654 -6.66667,8.087654 -0.73333,0 -2.53333,-1.2 -4,-2.666666 z M 179,83.100766 c -3.92139,-2.735417 -3.80841,-6.264381 0.28643,-8.947421 4.59434,-3.010339 5.55417,-2.749257 8.01436,2.179986 2.07372,4.1549 2.0442,4.429414 -0.71672,6.666667 -3.43508,2.783544 -3.73248,2.787495 -7.58407,0.100773 z M 22.857571,80.614803 C 19.662569,79.651802 15.554177,77.469517 13.727813,75.765278 9.644304,71.954828 5.2479657,63.626674 5.6143468,60.395627 5.7637541,59.078032 5.3883119,55.715027 4.7800308,52.922283 3.8318015,48.568767 4.2829749,46.667126 7.9434276,39.58895 10.291577,35.04836 13.17959,30.583333 14.361235,29.666666 c 6.08275,-4.718724 8.525016,0.935705 3.263818,7.556517 -8.0464858,10.125881 -9.1621991,19.221472 -3.219685,26.247721 4.821399,5.700677 8.479639,6.51397 34.927965,7.76513 17.624018,0.833719 37.333334,-5.960276 37.333334,-12.869165 0,-0.968253 -2.205886,-2.946902 -4.901968,-4.396998 -9.295975,-4.999868 -9.241214,-4.761251 -5.426998,-23.647458 2.105751,-10.426696 8.931351,-19.311687 16.856134,-21.9418968 5.441048,-1.8058661 6.109062,-1.7602625 9.333335,0.637162 4.80796,3.5749858 5.6574,12.7428048 1.39219,15.0254808 -2.84989,1.525212 -7.741176,1.268019 -12.1934,-0.641153 -3.674745,-1.575777 -8.792627,4.532059 -8.792627,10.493389 0,4.080835 0.620382,5.218597 3.533334,6.480044 C 93.621461,43.473807 100,48.092088 100,50.174039 c 0,1.177322 -1.730619,4.111653 -3.84582,6.520733 -2.115201,2.409081 -4.065201,4.928111 -4.333333,5.597842 -0.687351,1.716844 -17.909611,15.040717 -19.44143,15.040717 -0.695013,0 -5.358964,1.285463 -10.364336,2.856583 -7.05013,2.212944 -9.640401,2.51952 -11.496065,1.360639 -1.33874,-0.836058 -2.719372,-0.97173 -3.129848,-0.307564 -1.108361,1.793366 -17.926308,1.362705 -24.531597,-0.628186 z M 156.57668,55.57962 c -0.37013,-0.964541 -0.1292,-3.214541 0.53531,-5 1.16128,-3.12006 1.69025,-3.246288 13.60388,-3.246288 12.3673,0 12.39788,-0.0083 13.38317,-3.63651 0.80739,-2.973136 0.11013,-4.785588 -3.82213,-9.935559 -6.23655,-8.167746 -6.86919,-16.62711 -1.54424,-20.648748 4.58725,-3.4645046 7.934,-2.037387 7.934,3.383215 0,2.315735 1.14278,6.34262 2.53953,8.948635 1.39673,2.606013 2.71352,6.197128 2.9262,7.980254 0.64799,5.432969 -4.00013,16.893704 -8.32879,20.53602 -3.59624,3.026036 -5.16688,3.372693 -15.28109,3.372693 -8.08673,0 -11.46308,-0.495667 -11.94584,-1.753712 z"
       id="path130" />
  </g>
</svg>
