<?xml version="1.0" encoding="UTF-8" standalone="no"?>
<!-- Created with Inkscape (http://www.inkscape.org/) -->

<svg
   version="1.1"
   id="svg2"
   width="268"
   height="120"
   viewBox="0 0 268 120"
   xmlns="http://www.w3.org/2000/svg"
   xmlns:svg="http://www.w3.org/2000/svg">
  <defs
     id="defs6" />
  <g
     id="g8"
     style="fill:#ffffff">
    <path
       style="fill:#ffffff;stroke-width:1.33333"
       d="M 11.155494,108.83993 C 4.7576889,103.04762 4.7194325,102.96293 4.6809199,94.506597 4.6596119,89.827969 4.1389113,85.212192 3.5238073,84.249316 2.4832515,82.620441 5.8314019,77.333333 7.9034695,77.333333 8.8301328,77.333333 12,90.100828 12,93.833213 12,97.596016 17.207163,104 20.266747,104 c 1.513506,0 4.754936,-1.23799 7.203178,-2.75109 4.620367,-2.855539 5.669419,-5.268187 8.613139,-19.808813 6.347307,-31.35279 8.000816,-35.693054 15.484791,-40.645713 2.825273,-1.869677 7.946978,-4.245136 11.381568,-5.278795 5.661876,-1.703974 6.437869,-1.665941 8.314309,0.407503 2.462764,2.721323 2.709969,8.23654 0.469601,10.476908 -0.88,0.88 -4.107722,1.6 -7.172717,1.6 -4.972168,0 -6.092933,0.634856 -10.4,5.891063 -3.64392,4.446924 -4.827283,7.117998 -4.827283,10.896093 0,7.651548 -3.978658,27.18896 -6.47281,31.785073 -4.195363,7.731031 -8.693191,12.752131 -13.814268,15.421381 -7.570659,3.94605 -10.648034,3.40359 -17.890761,-3.15368 z M 206.15476,51.297619 C 204.96964,50.1125 204,48.508416 204,47.732988 c 0,-0.920325 -2.30816,-1.103683 -6.64739,-0.528063 -4.92886,0.653838 -7.46101,0.348708 -9.7945,-1.180256 -4.95134,-3.244242 -5.98846,-7.043649 -4.92762,-18.051908 0.52858,-5.485018 0.70296,-10.272761 0.38752,-10.639428 -0.31544,-0.366666 -4.38356,-0.676685 -9.04025,-0.688929 -4.65671,-0.01227 -8.88648,-0.442012 -9.39951,-0.95504 -0.51302,-0.513028 -1.00301,-3.20301 -1.08885,-5.9777379 -0.14932,-4.8269822 0.0168,-5.0292036 3.84393,-4.6802988 2.2,0.2005635 7.6,0.3853184 12,0.4105668 14.78548,0.084843 14.49338,-0.1607676 13.45374,11.3120539 -1.30584,14.410479 -0.19782,18.870743 4.96986,20.005759 2.28555,0.501989 5.19167,1.559781 6.45806,2.350649 3.82797,2.390613 7.85985,-2.30168 7.11974,-8.28596 -0.32816,-2.653417 -0.0891,-5.636343 0.5314,-6.628723 1.71646,-2.745446 6.41083,0.328012 7.40338,4.847078 0.45078,2.052377 2.01073,5.69026 3.46657,8.084184 l 2.64696,4.352588 3.92508,-2.794898 c 2.64757,-1.885248 4.21331,-4.404294 4.81069,-7.739761 1.79474,-10.020888 8.5246,-11.944355 8.56606,-2.448271 0.0356,8.158424 1.2403,10.170074 6.0904,10.170074 4.90692,0 7.22473,-2.737231 7.22473,-8.5321 0,-4.278339 4.03067,-6.71441 7.23397,-4.372095 2.12974,1.557293 2.10967,2.253339 -0.32688,11.338092 -1.42776,5.32342 -3.65892,10.853556 -4.95816,12.289191 -3.44814,3.810166 -10.62946,3.452018 -14.49882,-0.723088 -3.96086,-4.273835 -4.97846,-4.1947 -8.57262,0.666666 -4.16257,5.630182 -9.87013,5.481478 -15.36553,-0.40033 l -4.11125,-4.400331 -2.03368,3.987596 c -2.48372,4.869989 -4.38679,5.602835 -7.21227,2.777351 z m -53.2092,-1.463172 C 151.78269,48.671576 144.69551,48.068507 134,48.222313 103.09218,48.66678 78.290672,48.15734 77.1887,47.055367 c -0.828171,-0.828171 -0.820355,-2.517258 0.02191,-4.732559 0.987216,-2.596575 1.986066,-3.267891 4.056649,-2.726421 1.510823,0.395089 3.548961,0.05273 4.529196,-0.760787 0.980233,-0.813521 2.192144,-1.069231 2.693133,-0.568241 1.461514,1.461513 35.272212,2.415289 36.653532,1.033969 1.05972,-1.05972 -6.71231,-8.6358 -11.80978,-11.512036 -2.56667,-1.448233 -7.06667,-4.036411 -10,-5.751503 C 100.4,20.322696 95.416535,18.48942 92.25896,17.963841 c -4.889308,-0.813826 -6.214001,-0.511277 -8.928979,2.039312 -1.753364,1.6472 -3.369894,4.152166 -3.592289,5.566591 -0.357925,2.276392 -0.693153,2.358977 -2.919507,0.719241 -1.79498,-1.322026 -2.51515,-3.51242 -2.51515,-7.649818 0,-4.685346 0.710613,-6.408624 3.704652,-8.983987 3.288925,-2.8290177 4.917765,-3.1695411 14.515148,-3.0345196 5.945774,0.083648 12.010495,0.097721 13.477165,0.031273 2.30244,-0.1043133 30.85615,0.9735048 46.51568,1.7558313 6.08088,0.3037911 9.02941,3.5183383 6.65821,7.2589023 C 157.89527,17.683677 155.456,18 141.18071,18 c -9.08272,0 -17.22569,-0.491636 -18.09548,-1.092525 -0.87804,-0.606592 -2.92317,-0.374452 -4.59806,0.52192 l -3.01661,1.614444 3.65121,2.811414 c 2.00816,1.546278 5.87729,4.659731 8.59805,6.918787 2.72077,2.259055 7.79685,5.462579 11.28018,7.118941 3.48333,1.656363 6.34252,3.708046 6.35375,4.559294 0.0133,0.981897 0.43841,0.888088 1.16377,-0.256602 0.945,-1.491314 1.6932,-1.504341 4.31292,-0.07509 1.74325,0.951079 4.86128,1.563431 6.92892,1.360781 3.51645,-0.344642 3.73184,-0.08132 3.33333,4.075095 -0.34774,3.627087 -1.04766,4.51604 -3.80925,4.838092 -1.86079,0.217 -3.81283,-0.03504 -4.33788,-0.5601 z"
       id="path30" />
  </g>
</svg>
