<?xml version="1.0" encoding="UTF-8" standalone="no"?>
<!-- Created with Inkscape (http://www.inkscape.org/) -->

<svg
   version="1.1"
   id="svg12"
   width="305.33334"
   height="149.33333"
   viewBox="0 0 305.33334 149.33333"
   xmlns="http://www.w3.org/2000/svg"
   xmlns:svg="http://www.w3.org/2000/svg">
  <defs
     id="defs16" />
  <g
     id="g18"
     style="fill:#ffffff">
    <path
       style="fill:#ffffff;stroke-width:1.33333"
       d="m 19.371847,143 c -1.078817,-1.28334 -4.978817,-5.69131 -8.666667,-9.7955 -8.0591742,-8.96902 -8.755942,-13.90268 -2.3002265,-16.28739 1.8680565,-0.69006 2.9108215,0.22464 4.6709165,4.09725 1.24628,2.7421 3.81169,6.506 5.700912,8.36423 1.889222,1.85823 4.126333,4.55822 4.971356,5.99999 1.175407,2.00548 1.802148,2.2192 2.6674,0.90959 0.625671,-0.94699 2.133479,-1.32713 3.374709,-0.85083 2.649011,1.01652 6.209754,-1.56132 6.209754,-4.49561 0,-1.1358 -1.026143,-3.19896 -2.280316,-4.58481 -1.349632,-1.49133 -1.75777,-2.89464 -1,-3.43832 3.533818,-2.53545 7.841676,-15.93298 8.012357,-24.918602 0.285759,-15.043953 4.320447,-31.661555 8.868968,-36.528463 4.799327,-5.135271 9.757422,-6.509751 14.306599,-3.966067 4.297664,2.403049 12.305691,15.530532 11.812718,19.364474 -0.202963,1.578471 0.592317,3.978471 1.767288,5.333333 5.108256,5.890354 2.916317,12.90185 -2.537273,8.116139 -1.25602,-1.102201 -3.677244,-2.429231 -5.380499,-2.948956 -2.783995,-0.8495 -3.006087,-1.482031 -2.198574,-6.261661 0.749516,-4.436343 0.395895,-5.851439 -2.135593,-8.546085 -1.668615,-1.776159 -4.095235,-3.22938 -5.392488,-3.22938 -2.824503,0 -6.501934,4.860124 -6.529928,8.630008 -0.01104,1.486829 -0.884707,5.103325 -1.941478,8.036658 -1.056769,2.933333 -1.969789,8.333333 -2.028932,12 C 49.24737,103.91931 47.580374,113.50814 44.127402,128 c -1.76243,7.3968 -5.012084,12.36053 -9.744317,14.88414 -5.714699,3.04754 -12.502717,3.09992 -15.011238,0.11587 z M 284.14747,97.608876 c -0.6746,-1.260499 -0.90248,-5.166943 -0.50638,-8.680987 0.39608,-3.514044 0.0133,-11.610383 -0.85099,-17.991864 -4.36169,-32.210689 -3.67027,-55.960609 1.78805,-61.4189324 1.73428,-1.7342797 2.76443,-1.1316779 8.69462,5.0860644 8.23417,8.63345 8.64914,11.100072 1.76765,10.507197 -4.75805,-0.409931 -5.02168,-0.210923 -6.48808,4.897843 -1.2318,4.291437 -1.15557,6.061497 0.39268,9.11853 2.49095,4.918355 2.83955,43.767303 0.52401,58.397285 -0.3335,2.107156 -4.20621,2.168915 -5.32156,0.08487 z m -97.8914,-5.130593 c -0.17368,-0.173677 -7.32676,-0.55764 -15.89573,-0.85325 -17.07318,-0.588986 -17.97383,-0.953627 -23.33602,-9.44787 -2.59997,-4.118623 -2.91176,-5.422683 -1.50448,-6.292433 1.10594,-0.683505 2.18438,-0.365918 2.86059,0.84241 0.59697,1.066738 2.57443,1.939525 4.39433,1.939525 1.81992,0 3.6543,0.9 4.0764,2 0.49279,1.284175 2.55122,2 5.75119,2 2.74104,0 8.52685,1.233318 12.85735,2.740706 13.16234,4.581634 12.63326,4.525135 13.44125,1.435402 0.40887,-1.563527 1.31628,-2.842775 2.01647,-2.842775 2.09964,0 4.49992,-3.05876 6.17236,-7.86563 2.40202,-6.903899 1.98928,-9.313393 -1.75644,-10.253511 C 193.5,65.42072 192,64.52304 192,63.886013 c 0,-0.637028 -2.25,-1.147876 -5,-1.13522 -2.75,0.01267 -7.39713,0.02761 -10.32696,0.03323 -3.82834,0.0073 -6.28701,0.930021 -8.73961,3.279764 -1.87697,1.798252 -4.39444,3.269548 -5.59436,3.269548 -3.46124,0 -4.39253,-2.951052 -1.56463,-4.957879 1.40739,-0.998756 5.3602,-3.882116 8.784,-6.407464 6.1422,-4.530388 6.38934,-4.587392 18.55452,-4.279768 l 12.3294,0.311778 2.56891,4.602732 c 2.61392,4.683406 2.51431,6.473208 -1.15381,20.730601 -1.05998,4.11995 6.4532,7.039003 12.02938,4.673711 C 216.14908,83.04745 219.8,82.36295 222,82.48593 c 12.46959,0.697052 12.69315,0.654279 16.71406,-3.198 2.20667,-2.114124 4.65491,-6.268778 5.44052,-9.232564 0.78561,-2.963785 2.00588,-6.484438 2.71168,-7.823671 0.70581,-1.339235 2.47072,-6.279402 3.92201,-10.978148 1.68219,-5.44628 3.6403,-9.079207 5.40171,-10.021884 2.02057,-1.081379 2.36625,-1.875435 1.28651,-2.955185 -0.81207,-0.812063 -1.47648,-4.976425 -1.47648,-9.254137 0,-13.126148 8.36324,-25.5847433 14.59088,-21.7358428 1.9826,1.2253081 1.75241,8.1674738 -0.41268,12.4463818 -1.94822,3.850266 -3.57479,11.237437 -4.21247,19.131051 -0.41965,5.194752 -2.68401,10.469401 -4.49441,10.469401 -0.60584,0 -0.84092,1.363271 -0.5224,3.029491 0.34234,1.790908 -1.82496,8.209217 -5.3011,15.698761 -6.02692,12.985377 -10.49862,18.161898 -19.32493,22.37087 -4.02535,1.919556 -5.11937,1.920277 -12.25614,0.0081 -6.35417,-1.702518 -8.17326,-1.778481 -9.61817,-0.401641 -1.4798,1.410088 -27.01257,3.619343 -28.19252,2.439393 z M 104.44021,89.610777 C 97.089381,85.649753 93.525527,78.74096 91.572957,64.666665 c -0.305212,-2.2 -1.491452,-6.7 -2.636087,-10 C 85.229309,43.977712 79.95801,7.2419922 81.859008,5.3409937 c 1.893579,-1.8935791 6.878537,-1.6654455 8.586873,0.392973 0.791485,0.9536818 3.013494,13.1036813 4.937797,26.9999993 1.924304,13.896318 4.875362,29.766033 6.557902,35.266032 3.16181,10.33555 5.00444,12.335274 12.81386,13.906288 4.44293,0.89378 8.03985,7.019427 5.18294,8.826677 -3.05798,1.934454 -10.87626,1.368351 -15.49817,-1.122186 z m 21.22646,0.172846 c -3.54669,-1.431121 -1.69613,-7.196728 4,-12.462359 l 5.66667,-5.2384 V 61.708099 c 0,-10.165789 0.0695,-10.382839 3.44746,-10.775511 4.4084,-0.512448 6.24515,1.765749 6.78652,8.417651 0.30775,3.781332 0.98535,5.196369 2.34672,4.900636 3.38292,-0.734879 8.08596,1.072746 8.08596,3.107859 0,1.086028 -0.81046,1.974598 -1.80104,1.974598 -3.51066,0 -9.99561,-2.880251 -10.71688,-4.759835 -0.40244,-1.048757 -1.6357,-1.906832 -2.74056,-1.906832 -1.5185,0 -1.74181,0.732275 -0.91486,3 0.8977,2.461716 1.10528,11.842608 0.35404,16 -0.0993,0.55 -1.66528,1 -3.47979,1 -2.31711,0 -3.91478,1.190612 -5.36757,4 -2.08697,4.03575 -2.63822,4.338965 -5.66667,3.116958 z M 179,37.888576 c -5.24828,-4.136269 -5.31405,-5.665722 -0.40996,-9.532103 l 3.77584,-2.97686 3.48372,2.7403 c 4.06832,3.20014 4.51183,7.869702 1.04542,11.006769 -3.06368,2.772592 -2.74207,2.823028 -7.89502,-1.238106 z"
       id="path338" />
  </g>
</svg>
