<?xml version="1.0" encoding="UTF-8" standalone="no"?>
<!-- Created with Inkscape (http://www.inkscape.org/) -->

<svg
   version="1.1"
   id="svg22"
   width="426.66666"
   height="142.66667"
   viewBox="0 0 426.66666 142.66667"
   xmlns="http://www.w3.org/2000/svg"
   xmlns:svg="http://www.w3.org/2000/svg">
  <defs
     id="defs26" />
  <g
     id="g28"
     style="fill:#ffffff">
    <path
       style="fill:#ffffff;stroke-width:1.33333"
       d="m 94.142587,137.50892 c -2.121578,-0.46324 -4.521578,-1.90933 -5.333334,-3.21354 -2.14084,-3.43958 1.22393,-5.2371 8.194651,-4.37774 4.162376,0.51315 6.921506,-0.003 10.373886,-1.94261 2.58683,-1.45293 5.53533,-2.64169 6.55222,-2.64169 4.07654,0 14.73092,-5.69179 21.5342,-11.50402 7.19975,-6.15094 7.20245,-6.15619 7.20245,-13.991283 v -7.838035 h -8.73288 c -8.68269,0 -14.54282,-1.914143 -17.77195,-5.805001 -2.80461,-3.379348 0.90821,-17.725959 5.97874,-23.102284 6.15472,-6.525901 11.25244,-6.146072 16.65037,1.240618 2.27755,3.116667 4.72308,7.165569 5.4345,8.99756 1.96792,5.067611 5.17346,8.00244 8.74061,8.00244 4.57092,0 3.56965,5.13452 -1.55296,7.963562 -3.51613,1.941838 -4.10409,3.253546 -5.70387,12.724883 -0.981,5.80793 -2.81689,12.00417 -4.07977,13.76944 -1.26287,1.76526 -3.21507,4.58008 -4.33823,6.25515 -3.70504,5.52569 -14.86385,13.69731 -20.71709,15.17118 -6.13418,1.5446 -16.09904,1.67404 -22.431543,0.29137 z M 138.66666,78.745358 c 0,-0.690055 -0.6,-1.625464 -1.33333,-2.07869 C 136.6,76.213443 136,76.778028 136,77.921312 c 0,1.143279 0.6,2.07869 1.33333,2.07869 0.73333,0 1.33333,-0.564589 1.33333,-1.254644 z M 26.555998,117.87108 C 17.107912,114.87122 16.156068,114.21444 12.031305,107.84884 2.7842397,93.578193 0.6880427,69.950566 8.0758836,63.264661 13.036707,58.775177 13.965278,61.212824 13.983146,78.772162 13.995413,90.822561 14.544741,96.40832 16,99.280109 c 2.080864,4.106351 15.033458,12.326581 21.442786,13.608451 4.789864,0.95797 19.871896,-3.34348 23.687569,-6.75579 3.672293,-3.28408 8.311084,-9.539158 8.786173,-11.847526 0.183218,-0.890216 0.738948,-3.118575 1.234958,-4.951909 2.33353,-8.62512 2.005697,-14.844145 -0.933707,-17.712475 -1.586445,-1.548085 -4.512767,-5.222798 -6.502935,-8.166029 -3.358936,-4.967482 -3.463662,-5.522408 -1.460016,-7.736412 2.509512,-2.77298 6.223644,-3.107754 7.97048,-0.718418 3.966618,5.425568 7.603419,24.694854 6.307913,33.421957 -0.564281,3.801257 -0.877714,7.709638 -0.696517,8.68529 0.181196,0.975652 -0.607936,3.204542 -1.753628,4.953092 -1.145693,1.74854 -2.083077,4.11911 -2.083077,5.26793 0,1.14882 -1.05,2.47204 -2.333333,2.9405 -1.283334,0.46846 -3.976363,2.20503 -5.98451,3.85904 -4.086053,3.36548 -15.255755,6.81288 -22.348823,6.8977 -2.566667,0.0307 -9.216467,-1.3888 -14.777335,-3.15443 z M 192.23241,107.58073 c -3.69687,-3.93514 -3.64252,-5.08413 0.42107,-8.901672 2.85401,-2.681204 3.78998,-2.905041 6.66666,-1.594337 4.50082,2.050711 5.06543,8.781789 0.99948,11.915279 -3.09173,2.38269 -4.79653,2.0835 -8.08721,-1.41927 z m -21.56575,0.47519 c 0,-0.81012 0.9,-1.81831 2,-2.24042 3.01531,-1.15707 2.39963,-4.48216 -0.82992,-4.48216 -2.36432,0 -2.55684,-0.32907 -1.17008,-2.000004 2.19708,-2.647316 6.53883,-2.551251 7.58222,0.167764 1.01686,2.64994 -2.61914,9.00465 -5.49099,9.59667 -1.15017,0.2371 -2.09123,-0.23173 -2.09123,-1.04185 z M 406.32797,87.434393 c 0.40225,-5.01118 -0.25299,-14.673323 -1.579,-23.284224 -1.24662,-8.095236 -2.1329,-15.790712 -1.96952,-17.101056 0.16337,-1.310345 -0.16552,-3.448516 -0.7309,-4.751491 -0.9721,-2.240358 1.10523,-27.627726 2.77159,-33.8720554 1.1266,-4.221678 4.17004,-4.8020678 7.31679,-1.3953248 1.5087,1.6333671 4.57492,4.8790202 6.81381,7.2125612 4.8778,5.084019 4.27172,8.423864 -1.52865,8.423864 -6.81908,0 -7.00098,1.310288 -4.05162,29.186406 1.50696,14.243177 -0.95658,38.202457 -4.36792,42.480263 -2.64666,3.318916 -3.34929,1.506513 -2.67458,-6.898943 z M 91.809153,89.777779 C 91.704188,87.700002 91.752995,82.100002 91.917613,77.333335 92.092247,72.276626 91.368671,66.167467 90.180475,62.666668 87.207467,53.907252 85.333539,40.578657 86.080319,33.503707 89.419651,1.8671142 90.749043,-0.27567467 100.69082,9.953662 c 7.18807,7.395985 7.8682,11.379672 1.94284,11.379672 -5.53015,0 -7.157224,4.422681 -5.333192,14.496588 0.747233,4.126876 1.325626,9.903412 1.285318,12.836746 -0.04031,2.933333 -0.02275,11.333333 0.03901,18.666667 0.113346,13.458459 -2.113787,24.718552 -5.084977,25.708949 -0.897226,0.299076 -1.619466,-1.063265 -1.730666,-3.264505 z M 35.666666,89.179886 c -4.390493,-3.275669 -4.518909,-4.948919 -0.921057,-12.00129 l 2.745608,-5.381838 3.587725,2.236437 c 1.973248,1.23004 4.624401,3.425788 5.891451,4.879439 2.188448,2.510744 2.17041,2.904324 -0.360431,7.865185 -3.013904,5.907739 -5.510123,6.455663 -10.943296,2.402067 z M 199.42174,88.557725 c -6.89058,-2.523804 -9.74009,-5.248522 -10.83725,-10.362646 -1.34533,-6.270913 -3.04812,-8.855963 -5.27149,-8.002775 -1.08882,0.417818 -1.97967,1.534231 -1.97967,2.480918 0,0.946688 -1.45199,4.277528 -3.22665,7.401867 -5.32994,9.383509 -19.1279,12.099438 -17.8377,3.51109 0.47564,-3.166141 2.72902,-4.510185 9.3232,-5.560901 6.06307,-0.96609 9.07448,-6.094703 9.07448,-15.454411 0,-8.338155 0.98131,-10.570866 4.64606,-10.570866 4.2955,0 5.99741,2.676655 6.90444,10.858832 1.18722,10.709935 7.58286,19.692214 12.68625,17.81706 2.73447,-1.004736 4.6738,0.919544 5.70168,5.657442 1.09517,5.048016 -0.45139,5.422626 -9.18335,2.22439 z M 234,89.333335 212.66666,88.666669 v -4.582303 c 0,-4.455797 0.16564,-4.598365 6,-5.164093 9.29326,-0.901119 15.92062,-0.634173 17.70575,0.713181 C 238.52773,81.260211 260,80.110762 260,78.368626 c 0,-2.520202 -10.33871,-11.701958 -13.17647,-11.701958 -1.55295,0 -2.82353,-0.598581 -2.82353,-1.33018 0,-1.950093 -13.22534,-8.003153 -17.4861,-8.003153 -4.42506,0 -9.61526,5.863244 -8.44741,9.542837 1.09173,3.439734 -1.60547,3.070067 -3.96071,-0.542837 -1.3213,-2.026867 -1.7092,-4.820504 -1.1958,-8.612295 1.37075,-10.124008 0.84659,-10.000563 42.80112,-10.07996 20.45024,-0.03871 37.88127,0.361634 38.73559,0.889633 0.85432,0.528 1.55331,3.02459 1.55331,5.547978 0,4.561268 -0.0368,4.58894 -6.33334,4.753416 -3.48333,0.09099 -9.33333,0.04968 -13,-0.0918 -3.66666,-0.141484 -9.24646,0.326988 -12.39957,1.041046 -4.90819,1.111524 -6.06395,0.942954 -8.03413,-1.171797 -1.48427,-1.593169 -2.94476,-2.072369 -4.1139,-1.349801 -1.4005,0.865554 -1.08957,1.501432 1.36747,2.79654 1.74908,0.92194 3.48013,2.049448 3.8468,2.505572 3.06443,3.812069 13.07544,10.771468 15.49464,10.771468 1.65805,0 3.37491,0.582916 3.81523,1.295371 1.12346,1.817801 12.75621,6.821171 14.02949,6.034237 0.57724,-0.356756 2.33052,0.398136 3.89616,1.677539 2.6538,2.168604 2.70376,2.528673 0.73761,5.315241 -2.03594,2.885508 -2.76485,2.977887 -21.04106,2.666667 C 263.85276,90.145077 245.73333,89.700002 234,89.333335 Z m 92.28438,0.506614 c -0.3834,-0.383399 -4.01633,-0.69709 -8.07318,-0.69709 -4.16936,0 -7.96183,-0.705756 -8.72338,-1.623372 -0.90778,-1.093808 -0.90168,-4.83888 0.0187,-11.480461 1.90064,-13.715179 0.90503,-18.012662 -4.53213,-19.562591 -3.38398,-0.964647 -4.4021,-2.045603 -4.74783,-5.04086 -0.5432,-4.706186 1.41655,-6.055381 8.83404,-6.081823 4.3204,-0.0154 6.53121,0.783512 9,3.252309 3.69525,3.69525 4.0799,7.871119 1.84076,19.983758 -0.97456,5.271916 -0.997,8.181215 -0.0703,9.107989 0.74897,0.74896 5.14336,1.723347 9.76531,2.165305 7.9504,0.760224 8.42634,1.00169 8.82618,4.477804 0.25139,2.185509 -0.28885,3.894546 -1.33333,4.217953 -3.84956,1.191959 -10.14733,1.938651 -10.80491,1.281079 z m 15.04895,-0.480631 c -1.75983,-1.114429 -1.72574,-1.712393 0.284,-4.979583 1.4102,-2.292521 3.19557,-3.544064 4.66666,-3.271321 10.69324,1.982525 11.03454,1.936276 14.07379,-1.907223 1.63655,-2.069615 4.47555,-7.086543 6.30888,-11.148729 4.47979,-9.926043 5.07752,-10.719127 8.07869,-10.719127 3.38595,0 3.33283,-2.25056 -0.0787,-3.333334 -3.30967,-1.050446 -3.4612,-5.330955 -0.40556,-11.456121 1.2436,-2.49287 2.69461,-6.935053 3.22445,-9.871518 1.69875,-9.414672 5.02383,-23.3391984 5.9192,-24.7879389 1.4752,-2.3869127 6.45773,-3.6414485 9.05377,-2.279619 1.98158,1.0394945 2.3264,2.3669236 1.77746,6.8424449 -1.29655,10.570486 -4.73832,26.034423 -6.62935,29.785568 -1.04449,2.071951 -2.30476,5.567184 -2.80056,7.767184 -1.49715,6.643087 -6.41897,18.23993 -10.96121,25.826845 -5.95972,9.954549 -13.59266,14.832924 -23.17823,14.813697 -4.03333,-0.0081 -8.23333,-0.584641 -9.33333,-1.281225 z"
       id="path199" />
  </g>
</svg>
