<?xml version="1.0" encoding="UTF-8" standalone="no"?>
<!-- Created with Inkscape (http://www.inkscape.org/) -->

<svg
   version="1.1"
   id="svg32"
   width="438.66666"
   height="130.66667"
   viewBox="0 0 438.66666 130.66667"
   xmlns="http://www.w3.org/2000/svg"
   xmlns:svg="http://www.w3.org/2000/svg">
  <defs
     id="defs36" />
  <g
     id="g38"
     style="fill:#ffffff">
    <path
       style="fill:#ffffff;stroke-width:1.33333"
       d="m 124.92753,122.23215 c -4.26859,-3.64276 -5.34645,-5.78314 -7.73962,-15.36924 -1.96573,-7.873926 -2.36456,-11.552925 -1.36119,-12.556294 1.00337,-1.00337 1.69135,-0.670199 2.34806,1.137097 4.33582,11.932357 7.26326,16.649367 11.62313,18.728447 2.54451,1.21339 5.48417,1.87699 6.53259,1.47467 3.09151,-1.18632 8.55799,-14.34571 9.54607,-22.980161 0.50352,-4.4 1.42789,-9.5 2.05417,-11.333334 0.62627,-1.833333 2.44942,-9.037416 4.05142,-16.009072 1.602,-6.971656 3.61138,-13.623291 4.46529,-14.781411 2.23477,-3.030951 12.41593,-9.208066 15.19272,-9.217732 1.29791,-0.0045 3.9176,-0.821088 5.82155,-1.814602 3.09852,-1.616865 3.63161,-1.534352 5.08098,0.786458 0.92642,1.48344 2.46291,2.269108 3.59099,1.836221 1.08445,-0.416143 3.16632,-0.01635 4.62637,0.888424 2.14498,1.329217 2.87335,1.293623 3.79387,-0.185405 0.77317,-1.242288 2.58092,-1.584472 5.62599,-1.064928 2.4677,0.421038 7.90509,1.338694 12.08308,2.039233 9.46576,1.587164 16.12934,0.160768 20.72688,-4.43676 2.93677,-2.936771 3.21529,-3.761117 1.6132,-4.774607 -2.5089,-1.58714 -3.59026,-1.57128 -4.60308,0.06751 -1.23246,1.994158 -2.58116,1.644937 -6.43668,-1.666667 -9.64638,-8.2855 -16.36742,-11.666667 -23.19086,-11.666667 -3.90634,0 -6.18096,2.092147 -7.90818,7.273809 -2.75351,8.260519 -7.261,3.876688 -7.60238,-7.393793 -0.34525,-11.3985096 -1.5119,-11.109135 43.81994,-10.868979 21.66392,0.11477 40.00378,0.58866 40.75525,1.053088 0.75145,0.464429 2.85828,-0.765469 4.68183,-2.7331053 2.2675,-2.4466781 4.0371,-3.2811132 5.5983,-2.639809 1.25552,0.5157416 6.48278,1.2484399 11.61611,1.6282184 5.13333,0.3797786 10.38333,1.2343811 11.66667,1.8991169 3.18744,1.651019 3.03257,9.129682 -0.33334,16.096302 -3.59821,7.447442 -3.49709,14.807612 0.25142,18.299879 1.60494,1.495233 3.99352,2.718607 5.30793,2.718607 1.43193,0 2.60296,1.20248 2.92155,3 0.65969,3.722241 0.73029,10.333334 0.1104,10.333334 -4.48651,0 -14.2722,-3.531497 -16.57348,-5.981099 -3.30175,-3.514546 -4.23404,-13.540147 -2.30467,-24.783728 0.98172,-5.720993 0.83352,-6.195168 -2.39607,-7.666666 -1.89337,-0.862679 -5.36426,-1.577696 -7.71309,-1.588926 -2.34883,-0.0112 -5.14188,-0.571591 -6.20676,-1.245247 -1.37393,-0.869154 -2.49235,-0.430769 -3.85148,1.509653 -1.59212,2.273076 -2.86075,2.604894 -7.51841,1.96649 -3.46152,-0.474454 -6.19379,-0.17731 -7.14852,0.777432 -1.17174,1.171675 -1.93243,1.158476 -3.14548,-0.05458 -0.88,-0.88 -4.4589,-1.6 -7.9531,-1.6 -4.98848,0 -6.65962,0.572785 -7.78024,2.666667 -0.78493,1.466666 -2.30604,2.666666 -3.38024,2.666666 -2.52026,0 -2.49812,1.887815 0.0469,4 1.1,0.912919 2,2.411386 2,3.329927 0,0.91854 1.94018,2.05811 4.31152,2.532376 2.37133,0.474267 6.72133,2.463159 9.66666,4.419759 3.93916,2.616809 7.11792,3.578672 12.02182,3.637697 5.63236,0.06779 6.71957,0.493963 7.00764,2.746909 0.77416,6.054636 -0.50388,6.33772 -27.18511,6.021446 -13.83572,-0.164006 -31.54475,-0.182106 -39.35339,-0.04023 -8.86217,0.161028 -15.30446,-0.33445 -17.14314,-1.31848 -2.13026,-1.140076 -3.3489,-1.173182 -4.40248,-0.1196 -0.8013,0.801276 -3.99986,1.45686 -7.10792,1.45686 -9.10114,0 -16.4823,9.010337 -16.4823,20.120275 0,2.047291 -0.51541,4.040891 -1.14537,4.430223 -0.62995,0.38933 -1.55733,4.774741 -2.06087,9.745356 -1.08664,10.726886 -3.88209,22.133632 -6.91348,28.210202 -2.37726,4.76535 -9.18808,9.67587 -11.95018,8.61596 -0.94695,-0.36338 -2.84408,-0.06 -4.21586,0.67413 -1.98942,1.06471 -3.49767,0.47842 -7.45337,-2.89733 z M 230,22.666667 c 0.45322,-0.733333 0.18864,-1.333333 -0.58798,-1.333333 -0.77661,0 -1.41202,0.6 -1.41202,1.333333 0,0.733334 0.26458,1.333334 0.58797,1.333334 0.32339,0 0.9588,-0.6 1.41203,-1.333334 z M 74.477246,98.781397 C 71.824167,96.633064 72.20134,96.339617 86.870443,89.139321 95.191699,85.054852 103.5,81.346334 105.33333,80.898173 c 7.34842,-1.796338 16.74367,-14.867874 17.17696,-23.898172 0.13195,-2.75 0.0711,-5.043024 -0.13519,-5.095609 C 122.16879,51.851807 116.9,51.542311 110.66666,51.216624 97.252945,50.515768 92.906543,48.179745 92.231988,41.3087 c -0.581809,-5.926334 1.956925,-15.559437 5.360148,-20.338823 2.571634,-3.611529 3.191714,-3.821782 8.793644,-2.981721 12.62477,1.893203 19.58882,11.207038 20.94474,28.011845 0.9518,11.796308 -1.26799,20.673595 -7.72862,30.907896 -5.45756,8.645335 -19.33683,19.212457 -27.601901,21.014991 -14.121803,3.079832 -14.742014,3.110212 -17.522753,0.858509 z M 24.666666,80.035757 C 11.24984,73.564618 4.0215335,61.641498 4.0327333,46.000001 4.0401203,35.683252 7.040159,20.99683 10.091487,16.339915 c 2.633978,-4.019959 6.914423,-3.850671 8.827986,0.349141 1.256327,2.757338 1.14156,3.648926 -0.643608,5.000001 -4.848961,3.669854 -5.631679,29.625555 -1.143059,37.904975 2.386704,4.402363 8.793419,9.362135 15.144587,11.724218 6.915133,2.571829 14.98457,2.064983 21.57712,-1.355274 2.081001,-1.079636 4.627917,-1.962974 5.659814,-1.962974 1.031896,0 2.559621,-1.5 3.394944,-3.333334 0.835323,-1.833333 1.980367,-3.333333 2.544544,-3.333333 0.564176,0 2.349048,-2.649598 3.966381,-5.887994 4.388468,-8.787056 3.228439,-16.527901 -4.06496,-27.12536 -5.475936,-7.95665 -5.637782,-8.464463 -3.463449,-10.867074 4.583456,-5.064662 9.178513,-4.172775 12.734549,2.471736 1.964906,3.671462 4.402296,26.609793 3.456199,32.526361 -1.28984,8.066218 -6.005439,17.913742 -10.314452,21.539537 -9.146351,7.696148 -32.800064,11.013713 -43.101417,6.045216 z M 418.87979,80.77727 c -8.9545,-3.093051 -8.44906,-7.949864 1.57662,-15.149768 5.74033,-4.12239 8.67498,-4.282192 6.2384,-0.339704 -0.69136,1.118642 -0.3651,2.993377 0.84141,4.834741 1.7456,2.664112 1.73341,3.46638 -0.10667,7.02465 -2.69946,5.220201 -3.2588,5.457685 -8.54978,3.630081 z m -23.47086,-2.407276 c -2.63519,-3.762265 -2.6217,-6.330313 0.0533,-10.14944 4.82933,-6.894839 12.5962,-0.602458 9.56889,7.752312 -2.15965,5.960244 -6.38858,7.013773 -9.62221,2.397128 z m 7.61138,-24.24215 c -9.08969,-1.020439 -11.1215,-1.679523 -11.80369,-3.828904 -0.46053,-1.451004 -0.0284,-3.384725 0.97967,-4.38362 2.15006,-2.130544 15.5478,-2.967796 23.35382,-1.459428 4.7924,0.92604 5.62042,0.740585 6.06491,-1.358384 0.71488,-3.375659 -3.32748,-12.117017 -7.78969,-16.844739 -5.26552,-5.578818 -4.67714,-12.030251 1.64172,-18.0012711 3.37044,-3.1848983 5.67465,-4.2994838 8.26933,-4.0000001 3.333,0.3847039 3.56748,0.8167554 3.19535,5.8878772 -0.23555,3.209861 0.72896,8.447253 2.33266,12.666667 3.51532,9.248981 3.44472,12.640279 -0.3842,18.455624 -1.71589,2.606084 -4.08397,6.318514 -5.26241,8.249843 -3.03035,4.966443 -7.85231,6.047148 -20.59747,4.616335 z m -83.35365,-0.901308 c -2.95126,-1.718959 -3.14481,-10.11989 -0.30541,-13.257384 1.11536,-1.232454 3.06536,-5.479699 4.33333,-9.438322 2.46968,-7.710321 6.01808,-9.763363 6.67868,-3.864163 0.78552,7.014609 1.72092,9.183527 4.31585,10.007129 1.47562,0.468341 2.32258,1.434614 1.88212,2.147273 -1.06164,1.717777 1.89588,5.178932 4.42535,5.178932 1.52955,0 1.80775,-0.978301 1.1762,-4.136093 -0.59664,-2.983152 -0.0856,-5.17762 1.83333,-7.872494 1.4633,-2.055021 2.66055,-4.300787 2.66055,-4.990591 0,-0.689804 1.13931,-2.285252 2.5318,-3.54544 2.40771,-2.178946 2.63645,-2.141857 4.66667,0.756691 1.17417,1.676369 2.13486,3.932189 2.13486,5.012935 0,2.908721 6.73888,12.108325 8.86958,12.108325 1.92761,0 5.0899,-6.08668 6.4077,-12.333333 0.42544,-2.016667 1.62807,-3.666667 2.67252,-3.666667 2.19782,0 6.0502,5.015837 6.0502,7.877407 0,1.072897 1.27476,3.307641 2.8328,4.966096 1.55803,1.658455 3.26783,5.394423 3.79955,8.302151 0.90581,4.95354 0.74827,5.329448 -2.49947,5.963748 -2.29664,0.448547 -4.395,-0.186777 -6.21881,-1.882883 -2.86465,-2.66406 -7.89048,-3.422064 -9.15232,-1.380369 -1.32379,2.141936 -12.65436,3.062764 -17.60052,1.430383 -4.00397,-1.321428 -5.58839,-1.188286 -10.10699,0.849321 l -5.35865,2.416413 -2.62567,-3.604466 c -3.34969,-4.598389 -4.52135,-4.532839 -7.06991,0.395533 -2.2528,4.356444 -2.84078,4.594096 -6.33334,2.559868 z M 34.666666,50.666668 c -3.063557,-3.063557 -3.174278,-3.824615 -1.280913,-8.80454 1.293148,-3.40124 4.790657,-7.056002 6.84528,-7.153056 0.493734,-0.02332 2.743734,1.510932 5,3.409454 4.596622,3.867803 5.122312,7.08523 1.948953,11.928386 -2.682659,4.094256 -8.738871,4.394205 -12.51332,0.619756 z"
       id="path60" />
  </g>
</svg>
