<?xml version="1.0" encoding="UTF-8" standalone="no"?>
<!-- Created with Inkscape (http://www.inkscape.org/) -->

<svg
   version="1.1"
   id="svg2"
   width="217.33333"
   height="205.33333"
   viewBox="0 0 217.33333 205.33333"
   xmlns="http://www.w3.org/2000/svg"
   xmlns:svg="http://www.w3.org/2000/svg">
  <defs
     id="defs6" />
  <g
     id="g8"
     style="fill:#ffffff">
    <path
       style="fill:#ffffff;stroke-width:1.33333"
       d="m 15.683428,196.57948 c -5.006588,-2.71655 -7.9186044,-8.94938 -8.6523058,-18.51923 -0.6453471,-8.41744 1.4428971,-16.78624 3.6403098,-14.58883 0.681453,0.68146 2.091838,5.30754 3.13419,10.28018 1.835576,8.75678 4.403902,13.19634 9.082852,15.70044 3.807098,2.03749 9.803059,-4.35563 13.582488,-14.48218 1.841255,-4.93342 4.624839,-15.81494 6.185743,-24.18114 2.886209,-15.46964 5.755648,-23.0548 10.201414,-26.96671 4.996085,-4.39614 13.943087,-7.97621 18.902247,-7.56358 4.631937,0.38541 4.906299,0.66699 4.906299,5.03552 0,5.40485 -3.682633,7.98777 -11.434247,8.01973 -8.621363,0.0355 -12.986359,7.40172 -14.628441,24.68632 -0.55735,5.86666 -1.992931,14.45854 -3.19018,19.09306 -2.504922,9.6965 -10.015671,21.84187 -14.876784,24.05674 -4.566816,2.08078 -12.459875,1.81368 -16.853585,-0.57032 z m 85.282142,-51.42546 c -4.762557,-2.66526 -1.518262,-16.00804 3.4306,-14.10899 3.86743,1.48408 6.63629,7.11346 5.00137,10.16833 -2.05046,3.83132 -5.6344,5.50626 -8.43197,3.94066 z m 14.22862,-17.02131 c -2.27652,-1.38819 -5.87652,-5.26404 -8,-8.613 -2.12347,-3.34896 -4.52591,-6.11092 -5.33875,-6.1377 -0.81284,-0.0268 -3.691871,3.28581 -6.397841,7.3613 -4.6497,7.00295 -5.191046,7.38745 -9.85544,7 -4.478172,-0.37199 -4.935494,-0.77276 -4.935494,-4.32522 0,-3.29669 0.683514,-4.09236 4.326398,-5.03633 5.297722,-1.37278 7.59659,-4.71164 10.240785,-14.87366 2.409393,-9.259635 4.014612,-11.508101 8.215832,-11.508101 3.93205,0 5.81107,3.449809 6.32717,11.616481 0.55378,8.76295 2.56576,11.83142 9.20787,14.04293 6.47824,2.15695 9.4675,7.24922 6.41472,10.92759 -2.27915,2.74622 -5.16752,2.61764 -10.20525,-0.45429 z m 17.02023,0.20062 c -2.05908,-3.96171 0.36477,-7.54349 6.56594,-9.70266 9.3386,-3.25158 9.56534,-6.37285 1.45992,-20.095626 -3.70206,-6.267716 -7.6706,-12.175633 -8.81898,-13.128705 -1.37216,-1.138795 -2.08797,-3.959514 -2.08797,-8.227903 0,-6.08389 0.35028,-6.748784 5.53339,-10.503408 3.04336,-2.204598 6.49336,-4.02513 7.66666,-4.045625 1.17331,-0.02049 7.23328,-1.853232 13.46662,-4.072748 6.23333,-2.219516 13.14824,-4.509091 15.36645,-5.087945 2.21821,-0.578854 7.49072,-2.346117 11.71668,-3.927252 10.94795,-4.096155 20.85391,-3.877537 26.14789,0.577067 3.51388,2.956723 4.10231,4.354566 4.10231,9.745159 0,11.548528 -6.85105,14.882861 -8.65392,4.211771 -0.58843,-3.482896 -1.90423,-5.970468 -3.65317,-6.906477 -3.33931,-1.787139 -14.8151,-0.470787 -18.8396,2.161032 -1.56932,1.026249 -7.05331,2.294241 -12.18664,2.817758 -9.53312,0.972224 -31.33334,9.58677 -31.33334,12.38164 0,1.840521 5.42186,10.927625 8.43506,14.137257 8.05262,8.577603 9.28728,11.185053 8.48877,17.927235 -1.13229,9.56049 -6.45848,19.23175 -12.05355,21.88678 -5.94966,2.8233 -9.80462,2.77313 -11.32252,-0.14735 z m 16.11891,-86.549705 c -2.3058,-0.930411 -2.0928,-6.436775 0.32665,-8.444752 1.60635,-1.333142 2.64178,-1.229442 5.33334,0.534144 3.7898,2.483169 3.85172,2.679504 1.95977,6.214637 -1.32989,2.484919 -4.12356,3.10672 -7.61976,1.695971 z m 22.34771,-1.099644 c -2.1736,-2.619018 -0.6096,-8.683982 2.23937,-8.683982 3.32355,0 7.02045,3.922648 6.08692,6.458608 -1.61061,4.375268 -5.64676,5.454012 -8.32629,2.225374 z M 159.54093,16.726872 c -1.24123,-3.234602 1.41427,-8.7268721 4.21941,-8.7268721 3.88195,0 7.77616,4.9857681 6.04914,7.7447141 -1.90151,3.03769 -9.21147,3.736867 -10.26855,0.982158 z"
       id="path626" />
  </g>
</svg>
