<?xml version="1.0" encoding="UTF-8" standalone="no"?>
<!-- Created with Inkscape (http://www.inkscape.org/) -->

<svg
   version="1.1"
   id="svg12"
   width="129.33333"
   height="137.33333"
   viewBox="0 0 129.33333 137.33333"
   xmlns="http://www.w3.org/2000/svg"
   xmlns:svg="http://www.w3.org/2000/svg">
  <defs
     id="defs16" />
  <g
     id="g18"
     style="fill:#ffffff">
    <path
       style="fill:#ffffff;stroke-width:1.33333"
       d="m 21.387755,129.76634 c -1.554177,-1.97581 -4.527287,-4.62714 -6.606914,-5.89184 -4.8061527,-2.92279 -8.1141745,-12.27903 -8.1141745,-22.94972 0,-9.548689 4.9515585,-19.307634 14.8049065,-29.17875 3.433492,-3.439682 5.878022,-6.618658 5.43229,-7.064389 -0.44573,-0.445732 -3.338708,-1.928803 -6.428836,-3.295713 -7.595456,-3.359832 -9.443452,-9.244243 -5.556541,-17.693206 2.400166,-5.21723 3.486303,-6.075528 11.011993,-8.702015 6.978141,-2.43539 9.530459,-2.719272 15.542688,-1.728736 14.814385,2.440724 19.437166,6.568755 18.144943,16.202989 -0.867241,6.465775 -3.695666,9.913788 -9.779337,11.921581 -7.878749,2.600221 -4.344177,7.946791 5.253558,7.946791 3.513089,0 5.151827,0.840708 6.930687,3.555592 2.226046,3.397374 2.22153,3.634698 -0.101493,5.333333 -3.010597,2.201402 -3.571495,2.19413 -12.420233,-0.161026 -3.940955,-1.048913 -8.479625,-3.141791 -10.085934,-4.650841 -4.20264,-3.948174 -5.96766,-3.435406 -13.308333,3.866299 -5.6647,5.634628 -6.695422,7.493377 -7.554873,13.624063 -2.502414,17.850348 2.773374,29.243108 15.236774,32.902948 5.341953,1.56864 6.959749,1.5252 12.414263,-0.33334 3.449516,-1.17536 7.364963,-2.13703 8.700995,-2.13703 1.787195,0 2.429148,-1.01394 2.429148,-3.83674 0,-2.11021 0.930113,-4.60867 2.066917,-5.55213 3.155064,-2.61847 5.753552,0.89778 4.967664,6.7222 -0.487024,3.60946 -1.883779,5.54902 -6.165461,8.5615 -5.140096,3.61643 -6.441181,3.90235 -18.202453,4 -6.966667,0.0578 -13.368621,0.56089 -14.226566,1.11787 -0.938992,0.60961 -2.684683,-0.41722 -4.385678,-2.57969 z M 99.19398,89.049995 c -1.543309,-0.706413 -4.243309,-3.681448 -6,-6.61119 -1.75669,-2.929742 -4.628026,-6.721531 -6.380748,-8.426199 l -3.186763,-3.099396 -6.551818,6.551817 c -5.542584,5.542584 -6.95151,6.33791 -9.146569,5.16315 -4.636789,-2.481535 -3.19959,-7.723457 4.405249,-16.067353 3.85,-4.224152 8.295931,-9.3784 9.879847,-11.453884 l 2.879848,-3.773608 3.543309,3.316804 3.543311,3.316804 5.576842,-6.407936 c 4.562342,-5.242249 6.589242,-6.542097 11.142152,-7.145434 4.71103,-0.624292 6.0757,-0.227108 8.8903,2.587498 6.85951,6.859507 7.29352,18.100246 1.00499,26.028584 -12.64644,15.94413 -15.20234,18.03324 -19.59995,16.020343 z m 10.91769,-16.716663 c 3.67425,-2.32643 5.79254,-4.641386 5.79528,-6.333334 0.006,-3.678 -4.43268,-8.666666 -7.71113,-8.666666 -3.89213,0 -12.195822,5.223938 -12.195822,7.672513 0,2.078339 6.132112,10.994153 7.561542,10.994153 0.41754,0 3.3651,-1.65 6.55013,-3.666666 z M 36.092644,16.591746 c -2.984288,-2.696125 -5.425978,-5.691372 -5.425978,-6.6561037 0,-2.5595017 7.19741,-7.2689757 11.109053,-7.2689757 2.051269,0 4.448982,1.3792476 6.144184,3.5343471 l 2.780118,3.5343471 -3.197856,5.4149332 c -1.75882,2.978215 -3.824634,5.623861 -4.590698,5.879216 -0.766064,0.255355 -3.834535,-1.741638 -6.818823,-4.437764 z"
       id="path487" />
  </g>
</svg>
