<?xml version="1.0" encoding="UTF-8" standalone="no"?>
<!-- Created with Inkscape (http://www.inkscape.org/) -->

<svg
   version="1.1"
   id="svg22"
   width="340"
   height="168"
   viewBox="0 0 340 168"
   xmlns="http://www.w3.org/2000/svg"
   xmlns:svg="http://www.w3.org/2000/svg">
  <defs
     id="defs26" />
  <g
     id="g28"
     style="fill:#ffffff">
    <path
       style="fill:#ffffff;stroke-width:1.33333"
       d="m 18.260397,160.41752 c -2.056781,-1.08145 -4.689946,-4.1678 -5.851478,-6.85856 -1.161533,-2.69076 -2.6951937,-6.17707 -3.4081358,-7.74736 -1.7158099,-3.77913 0.051344,-18.58503 2.4564528,-20.5811 2.125313,-1.76385 2.025977,-1.88874 2.630629,3.30737 0.247763,2.12917 0.871359,4.82917 1.38577,6.00001 0.514409,1.17083 1.026048,2.72879 1.136974,3.46212 1.03765,6.85995 8.428486,14.69627 12.60929,13.36933 C 30.748955,150.88403 32,149.81607 32,148.99608 c 0,-0.81999 1.35,-2.92784 3,-4.68413 1.99574,-2.12432 3.077047,-5.05428 3.23016,-8.75262 0.126587,-3.05763 1.203472,-8.85933 2.393077,-12.89266 1.189607,-4.03334 2.789004,-10.60538 3.554219,-14.60454 2.783069,-14.544885 11.363309,-27.101538 19.705853,-28.838305 1.897514,-0.395029 4.491883,-1.281992 5.765266,-1.971029 C 70.921957,76.563759 73.460527,76 75.289839,76 c 3.95298,0 5.191752,3.629725 3.64038,10.666667 -1.008516,4.574572 -1.173224,4.674381 -8.346195,5.057588 -8.070228,0.43114 -8.277652,0.668597 -11.887871,13.609075 -0.920654,3.3 -2.231645,7.8 -2.913312,10 -0.681668,2.2 -1.803421,8.4011 -2.492786,13.78022 -0.689366,5.37912 -2.130458,11.37912 -3.202428,13.33333 -1.07197,1.95421 -2.539482,4.83503 -3.261136,6.40181 -0.721656,1.56679 -3.659938,5.31679 -6.529515,8.33334 -4.790079,5.03541 -5.753056,5.47305 -11.757195,5.3432 -3.59688,-0.0777 -8.222602,-1.02626 -10.279384,-2.10771 z M 298.15629,96.378519 c -0.4538,-0.453802 -22.27461,-0.99066 -48.49069,-1.193022 -26.21608,-0.20236 -50.19847,-0.397466 -53.29419,-0.433569 -3.82465,-0.0446 -5.49716,-0.602944 -5.21852,-1.742119 0.22554,-0.922061 0.15839,-1.226476 -0.1492,-0.676476 -0.93678,1.675079 -9.00293,1.115344 -11.63216,-0.807189 -1.40477,-1.027195 -2.13521,-2.683497 -1.69236,-3.837527 0.42851,-1.116685 0.15827,-2.65117 -0.60052,-3.409968 -2.31434,-2.31434 0.0171,-4.499626 3.06199,-2.870046 2.69831,1.444088 97.75897,2.252073 126.87476,1.078393 13.30901,-0.536497 14.60108,-0.830749 17.83117,-4.060844 l 3.48244,-3.482435 -3.55669,-2.330437 C 319.621,69.238012 303.7386,67.978908 258,67.319796 c -48.79427,-0.703145 -64.31819,-1.397937 -68.66667,-3.073259 -5.24042,-2.01896 -10.66666,-7.792577 -10.66666,-11.349538 0,-1.776683 -0.35052,-5.255332 -0.77892,-7.730332 -0.57222,-3.305798 -0.41454,-3.979491 0.59416,-2.538614 0.75521,1.078762 1.56334,1.678762 1.79585,1.333334 0.23252,-0.34543 1.70632,-3.028054 3.27512,-5.961387 2.15875,-4.036453 4.78911,-6.305993 10.81715,-9.333333 4.38064,-2.2 10.12461,-5.669216 12.7644,-7.70937 2.6398,-2.040152 9.27298,-5.286336 14.74042,-7.21374 9.48822,-3.344824 10.09676,-3.402184 13.36631,-1.259893 C 242.62031,17.318664 237.76769,24 226.87692,24 c -3.80221,0 -7.95496,0.524569 -9.22835,1.165709 -11.86082,5.971848 -15.13888,8.135871 -20.64857,13.63125 -3.48333,3.474285 -6.33333,7.497261 -6.33333,8.939948 0,3.952916 6.04028,7.393872 10.43265,5.943146 1.96204,-0.64803 5.96735,-0.754014 8.90068,-0.23552 2.93333,0.518494 6.01653,0.387555 6.85156,-0.290977 0.87908,-0.714323 3.68567,-0.771875 6.66667,-0.136707 2.83164,0.603343 7.24844,0.954728 9.8151,0.780856 14.26867,-0.966586 62.63703,-0.42123 66.50364,0.749832 3.07595,0.931603 5.31532,0.929598 7.06411,-0.0063 4.58644,-2.454588 16.50391,0.994572 22.50684,6.513941 6.41256,5.895989 6.87664,10.954689 2.01373,21.950573 -2.68922,6.08084 -4.23066,7.797583 -9,10.0236 -5.63865,2.63176 -22.63666,4.977886 -24.26536,3.349191 z M 159.58031,93.375853 c -2.79751,-0.541281 -6.69751,-2.176428 -8.66667,-3.63366 -3.81344,-2.82204 -9.75235,-13.398772 -8.93853,-15.918841 0.26818,-0.830489 -0.29755,-3.830489 -1.25718,-6.666667 -0.95964,-2.836177 -1.8034,-8.326797 -1.87504,-12.201378 -0.0716,-3.874582 -0.74058,-8.185136 -1.48657,-9.579011 C 136.61035,43.98242 136,40.899291 136,38.524895 c 0,-2.374395 -0.94859,-9.379394 -2.10799,-15.566662 -1.15938,-6.187269 -1.7523,-12.666708 -1.31758,-14.3987539 2.32661,-9.26997218 12.3511,-4.6988574 13.3931,6.1071879 4.57666,47.462041 8.114,63.29844 14.42335,64.572045 1.61835,0.326681 4.4824,0.915423 6.36456,1.308315 1.88216,0.392893 4.21899,2.203338 5.19296,4.023212 1.51855,2.837448 1.45403,3.792376 -0.45285,6.702645 -2.31415,3.531848 -3.47318,3.736407 -11.91524,2.102969 z M 83.056673,87.80784 C 83.923816,81.342809 85.634808,79.89182 92,80.223547 c 8.41291,0.438444 12.78334,-0.192379 15.41183,-2.224527 2.47881,-1.916429 2.48619,-2.061972 0.17469,-3.44444 -15.085815,-9.022553 -18.183452,-25.771093 -6.12287,-33.105572 11.15201,-6.781943 21.48529,-0.765977 23.87192,13.89808 1.66191,10.211127 -1.04607,18.655155 -8.5202,26.567723 -6.33114,6.702526 -18.01205,11.418522 -28.282202,11.418522 H 82.315549 Z M 107.65083,24.453717 c -2.74129,-1.950454 -4.98416,-4.029577 -4.98416,-4.62027 0,-2.26533 8.3935,-10.5001137 10.70249,-10.5001137 C 116.32947,9.3333333 124,15.570419 124,17.977517 124,20.343109 116.70347,28 114.44921,28 c -0.99782,0 -4.0571,-1.595827 -6.79838,-3.546283 z"
       id="path348" />
  </g>
</svg>
