<?xml version="1.0" encoding="UTF-8" standalone="no"?>
<!-- Created with Inkscape (http://www.inkscape.org/) -->

<svg
   version="1.1"
   id="svg32"
   width="281.33334"
   height="149.33333"
   viewBox="0 0 281.33334 149.33333"
   xmlns="http://www.w3.org/2000/svg"
   xmlns:svg="http://www.w3.org/2000/svg">
  <defs
     id="defs36" />
  <g
     id="g38"
     style="fill:#ffffff">
    <path
       style="fill:#ffffff;stroke-width:1.33333"
       d="m 13.649394,143.66666 c -3.7956027,-4.70757 -6.990588,-15.63556 -7.3091796,-25 -0.3138312,-9.22451 -0.1334185,-10 2.3264525,-10 2.2972701,0 2.7194241,1.01584 3.0475191,7.33334 0.612306,11.78998 5.000918,18.66666 11.912827,18.66666 2.855854,0 11.039654,-10.01729 11.039654,-13.51297 0,-1.29885 0.547894,-3.73978 1.217541,-5.42429 0.669646,-1.6845 1.97052,-8.33967 2.89083,-14.78925 0.92031,-6.449589 2.172418,-12.034999 2.78246,-12.412027 0.610043,-0.377026 1.10917,-1.773822 1.10917,-3.10399 0,-6.9989 7.641196,-17.9486 15.648575,-22.424134 3.617424,-2.021874 15.855425,-2.214567 17.058107,-0.26859 0.572592,0.926475 1.399244,0.953915 2.450625,0.08135 0.872612,-0.724204 7.598854,-1.730823 14.947206,-2.236932 11.588239,-0.798127 13.661429,-0.619405 15.628059,1.347227 2.65952,2.659512 2.97932,7.84867 0.60076,9.747885 -0.91666,0.731933 -11.592583,1.617882 -23.724261,1.968777 -13.492335,0.390249 -23.227876,1.264305 -25.071348,2.250901 -4.828174,2.58396 -8.193847,9.369309 -8.199406,16.530373 -0.0028,3.531544 -0.686942,7.69524 -1.520449,9.25266 -0.833505,1.55742 -1.949294,6.78376 -2.479531,11.61409 -1.189991,10.84055 -6.871624,22.91722 -13.258534,28.18184 -3.94734,3.25374 -5.876693,3.86375 -12.220336,3.86375 -4.42078,0 -8.088124,-0.68857 -8.876741,-1.66667 z M 130.78745,87.822473 c -2.73821,-2.93912 -2.62611,-9.185777 0.2301,-12.822475 3.52696,-4.490737 11.64912,0.434702 11.64912,7.064256 0,2.936779 -5.07173,8.602411 -7.70067,8.602411 -0.84082,0 -2.72118,-1.279887 -4.17855,-2.844192 z m 21.84323,-13.21404 c -0.43344,-0.701305 -2.0365,-1.275101 -3.56237,-1.275101 -2.90867,0 -4.37873,-1.449806 -9.8018,-9.666667 -3.61849,-5.482633 -5.56717,-6.239782 -6.86321,-2.666666 -1.88049,5.184429 -8.61334,12.167585 -12.56914,13.036423 -5.14767,1.130619 -6.39822,-0.190338 -5.52093,-5.831789 0.51218,-3.293581 1.60948,-4.782828 4.19033,-5.68707 C 122.8063,61.010025 128,53.68082 128,49.116458 c 0,-5.530186 2.70075,-11.61424 5.55822,-12.521165 3.98649,-1.265266 9.10845,4.118701 9.10845,9.574387 0,6.749559 2.47727,10.692609 8.83757,14.066748 5.44826,2.890289 5.8291,3.453384 5.8291,8.618629 0,5.343736 -2.82203,8.796295 -4.70266,5.753376 z m 45.08914,-1.079091 c -1.02552,-1.025528 -1.68202,-3.439164 -1.45887,-5.363637 0.37115,-3.200921 1.08732,-3.590277 8.40572,-4.569901 4.4,-0.588975 12.38134,-1.034631 17.73628,-0.990348 9.48179,0.07841 14.93039,-1.376109 14.93039,-3.985703 0,-0.707532 -0.85957,-1.286421 -1.91015,-1.286421 -1.05058,0 -2.27342,-1.144572 -2.71742,-2.543492 -0.444,-1.39892 -1.68443,-2.880089 -2.75652,-3.291486 -1.07208,-0.411398 -1.94924,-1.594034 -1.94924,-2.628082 0,-2.9001 -6.50816,-4.807245 -15.32427,-4.490608 -7.82798,0.28115 -8.03891,0.388958 -10.34383,5.287002 -3.15401,6.702409 -4.99857,6.304541 -4.99857,-1.078184 0,-4.825575 0.86737,-7.157518 4.20886,-11.315552 3.67074,-4.567739 4.86451,-5.211677 9.33684,-5.036433 2.82039,0.11052 5.50295,-0.174034 5.96125,-0.632327 1.3987,-1.398708 20.71394,10.595738 24.49305,15.209786 0.36667,0.447676 2.64753,1.829047 5.0686,3.069714 2.42107,1.240665 4.74203,3.142019 5.15769,4.225229 0.65115,1.696861 0.96463,1.706984 2.26474,0.07313 0.82993,-1.042989 4.68289,-2.174846 8.56213,-2.515238 6.27365,-0.550492 7.33591,-0.25945 9.61143,2.633399 1.8417,2.341364 2.33573,4.43532 1.76381,7.476052 -1.40531,7.471592 -3.33193,8.52798 -16.00864,8.777716 -6.31041,0.12432 -12.51956,0.785872 -13.79808,1.47012 -2.55507,1.367429 -29.17028,3.816637 -38.49614,3.542527 -3.23096,-0.09496 -6.71353,-1.011734 -7.73906,-2.03726 z m -34.51015,-1.138956 c -2.28449,-1.657398 -3.38201,-9.455155 -1.49933,-10.65259 0.89265,-0.567745 8.06429,-1.180133 15.937,-1.360861 14.24118,-0.326926 14.31821,-0.31178 15.14378,2.977585 1.69858,6.767636 0.36552,7.385842 -20.12445,9.332772 -4.4,0.418081 -8.65565,0.284474 -9.457,-0.296906 z m 53.28936,-50.642984 c -1.55886,-0.305861 -4.16549,-1.973106 -5.79252,-3.704989 -3.55601,-3.785215 -2.80123,-7.466692 2.20314,-10.7456753 3.2199,-2.109761 3.80068,-2.1185761 7.98909,-0.1212587 5.40685,2.5783484 6.79175,5.440711 4.13231,8.540847 -1.07747,1.25602 -2.33142,3.333673 -2.78654,4.617006 -0.4551,1.283334 -1.2963,2.251624 -1.86933,2.151758 -0.57301,-0.09987 -2.31728,-0.431827 -3.87615,-0.737688 z"
       id="path209" />
  </g>
</svg>
