<?xml version="1.0" encoding="UTF-8" standalone="no"?>
<!-- Created with Inkscape (http://www.inkscape.org/) -->

<svg
   version="1.1"
   id="svg2"
   width="316"
   height="164"
   viewBox="0 0 316 164"
   xmlns="http://www.w3.org/2000/svg"
   xmlns:svg="http://www.w3.org/2000/svg">
  <defs
     id="defs6" />
  <g
     id="g8">
    <path
       style="fill:#000000;stroke-width:1.33333"
       d="m 34.666667,155.94235 c -8.534126,-3.13042 -17.333334,-7.97903 -17.333334,-9.55116 0,-0.73676 -1.500174,-3.12243 -3.333722,-5.30148 -1.833548,-2.17904 -3.71628,-5.56566 -4.1838501,-7.5258 -0.4675701,-1.96015 -1.4790281,-4.3599 -2.2476845,-5.33277 -1.7473855,-2.21163 -1.3688063,-25.63041 0.4436308,-27.44285 0.7268944,-0.72689 1.3216261,-3.786946 1.3216261,-6.800117 0,-6.811446 2.5208297,-10.637344 6.2325857,-9.459278 3.677286,1.167125 6.180169,6.875177 4.440213,10.126313 -0.736705,1.376548 -1.339465,3.708237 -1.339465,5.181532 0,1.47329 -1.317352,3.60143 -2.92745,4.72918 l -2.927449,2.05047 2.923217,5.47654 c 1.60777,3.0121 2.645742,6.77342 2.306603,8.35848 -1.011969,4.72973 5.938863,15.80864 11.988085,19.10778 2.917014,1.59088 6.0146,2.94088 6.883527,3 0.868928,0.0591 3.268928,0.79358 5.333333,1.63214 4.956592,2.01339 18.97685,1.73907 23.141818,-0.45278 1.816974,-0.9562 5.449152,-3.38444 8.071505,-5.39608 4.418021,-3.38914 4.742355,-4.12299 4.419607,-10.00001 C 77.151381,115.08458 75.590251,104 74.451119,104 73.800036,104 72.697032,102.5 72,100.66667 c -0.697032,-1.833337 -1.91668,-3.333337 -2.710329,-3.333337 -0.872788,0 -1.280986,-2.235337 -1.033002,-5.656837 l 0.409998,-5.656839 6.614729,-0.939549 c 4.062868,-0.577087 7.264129,-0.400597 8.298051,0.457481 2.552588,2.11846 3.67366,10.149226 1.741757,12.477027 C 83.993015,99.614984 84.042052,100 85.574071,100 c 1.045324,0 4.425142,1.85658 7.510709,4.12573 l 5.61012,4.12573 4.69895,-4.12573 C 105.97826,101.85658 109.08659,100 110.30123,100 c 1.93521,0 1.90514,-0.221785 -0.243,-1.792545 -2.68624,-1.964227 -2.27898,-6.241043 1.02439,-10.757428 3.3862,-4.629642 6.25071,-1.76937 6.25071,6.24146 0,3.909682 0.69457,7.803083 1.54349,8.652003 1.1691,1.1691 1.1295,2.04232 -0.16325,3.6 -2.00635,2.4175 -1.46444,2.52945 3.36181,0.69452 2.41951,-0.9199 4.11049,-0.92365 5.20948,-0.0116 1.97096,1.63578 3.38181,0.4539 3.38181,-2.83291 0,-1.71694 0.86954,-2.33565 2.96701,-2.11111 2.51907,0.26966 3.08367,-0.4876 3.73969,-5.015723 1.05486,-7.280878 3.50751,-11.333334 6.85926,-11.333334 2.57213,0 2.74165,0.538903 2.03813,6.479103 -0.72821,6.148617 -0.51379,6.726708 4.20383,11.333334 2.73414,2.66983 5.63169,4.85423 6.43897,4.85423 1.79268,0 3.08644,3.11967 3.08644,7.44238 0,2.4278 -0.72071,3.22429 -2.91749,3.22429 -4.90578,0 -11.57891,-5.48509 -12.02171,-9.88144 -0.51436,-5.10688 -3.72747,-6.30168 -3.72747,-1.38607 0,3.71425 -3.65474,7.88837 -8.15837,9.31777 -1.37956,0.43786 -2.50829,1.35567 -2.50829,2.03959 0,0.68391 -1.54902,1.24348 -3.44227,1.24348 -4.35412,0 -15.35636,-8.77136 -14.33636,-11.42944 0.40183,-1.04714 0.13987,-1.90389 -0.58213,-1.90389 -2.3686,0 -4.54319,3.81858 -3.69552,6.48934 1.06652,3.3603 -3.67269,6.85524 -9.240398,6.81434 -5.098391,-0.0374 -9.274567,-3.32252 -11.827364,-9.30368 -1.677163,-3.92956 -2.008944,-4.17897 -2.100529,-1.57902 -0.05983,1.69822 0.431425,4.09822 1.091657,5.33334 1.58164,2.95884 -0.468975,23.03572 -2.76148,27.03672 -5.846445,10.20353 -16.416155,15.47212 -32.507387,16.20368 -7.548756,0.34318 -12.324625,-0.15144 -16.598222,-1.71904 z M 259.10921,126.33333 c -0.57648,-0.91666 -1.15464,-8.56666 -1.28477,-17 -0.16445,-10.657099 -0.88851,-16.852627 -2.37413,-20.315098 -3.1176,-7.265968 -4.35288,-34.450181 -2.03934,-44.878635 C 255.11833,36.443549 255.42916,36 259.11483,36 c 2.77776,0 5.57276,1.622968 9.72496,5.646975 3.20478,3.105834 5.82688,6.384725 5.82688,7.286421 0,2.378805 -4.46551,4.426996 -6.67486,3.061548 -1.02546,-0.633777 -2.34313,-0.856503 -2.92814,-0.494944 -1.46275,0.90402 -1.34739,15.666763 0.13465,17.233333 2.49892,2.64145 4.12147,36.535117 2.19889,45.933337 C 266.15352,120.74635 262.8634,128 261.34947,128 c -0.65566,0 -1.66376,-0.75 -2.24026,-1.66667 z M 168.26667,118.4 c -2.08112,-2.08113 -2.03284,-5.29838 0.12373,-8.24774 1.52087,-2.07991 4.03223,-2.34279 21.33333,-2.23312 10.78531,0.0684 19.6096,-0.28009 19.6096,-0.77437 0,-0.49427 -4.17101,-5.00405 -9.26892,-10.021723 C 192.88477,90.056385 189.91989,88 186.91089,88 181.29152,88 176,92.618345 176,97.522841 c 0,3.363619 -0.46692,3.928539 -2.95063,3.569889 -8.11881,-1.172343 -3.25476,-19.810281 6.36082,-24.373167 6.17253,-2.929059 13.85332,-1.726263 18.11108,2.836161 1.72997,1.853751 5.28436,4.467611 7.89864,5.808576 2.61428,1.340965 6.72082,4.276123 9.12565,6.522572 C 219.34076,96.366263 229.64165,100 237.5446,100 c 6.45441,0 10.28664,4.80879 8.31719,10.43666 -1.14563,3.27375 -2.00338,3.63279 -10.55438,4.41787 -17.87106,1.64079 -26.05505,2.86446 -26.75732,4.00076 -1.14029,1.84503 -38.40426,1.42387 -40.28342,-0.45529 z M 98.50692,74.657012 c -1.18786,-0.694044 -3.160377,-2.789055 -4.383372,-4.655579 -2.169601,-3.311232 -2.118009,-3.490148 2.123561,-7.364224 5.862341,-5.354418 9.096311,-5.061782 14.196401,1.284607 2.32274,2.890332 4.22316,5.575335 4.22316,5.966675 0,0.818817 -11.31317,6.13193 -12.92685,6.070964 -0.59023,-0.02229 -2.045039,-0.608399 -3.2329,-1.302443 z m 34.25499,-2.085584 c -3.01556,-3.015555 -2.61807,-4.904948 1.95325,-9.28456 3.24133,-3.105385 4.50405,-3.59352 6.33333,-2.448307 2.79187,1.747823 3.63352,7.395731 1.65347,11.095502 -1.74991,3.269725 -6.9728,3.604622 -9.94005,0.637365 z m 53.6029,-8.229967 c -6.69334,-4.150653 -6.2261,-10.373656 1.07406,-14.305049 l 4.6139,-2.484756 3.97362,3.80696 c 5.12866,4.913569 5.01454,7.711712 -0.48558,11.906863 -5.23686,3.994353 -4.59182,3.918714 -9.176,1.075982 z M 119.33767,51.013247 c -5.15502,-0.757578 -5.88639,-2.118839 -4.1386,-7.702926 1.76719,-5.64606 7.10485,-7.394996 12.26011,-4.01714 4.3163,2.828152 5.25124,5.420402 3.41135,9.458512 -1.50158,3.295616 -2.78455,3.547202 -11.53286,2.261554 z M 291.33333,28.582468 c -0.73333,-0.260707 -6.61257,-1.031887 -13.06498,-1.713732 -7.44579,-0.78682 -12.59868,-2.024377 -14.10499,-3.387561 -1.30533,-1.181312 -3.34785,-2.147842 -4.53895,-2.147842 -2.9401,0 -8.95774,2.830899 -8.95774,4.21402 0,0.615623 -1.5,1.119314 -3.33334,1.119314 -3.83841,0 -4.03138,-0.799763 -1.47874,-6.128483 1.02002,-2.129335 2.88838,-6.121517 4.15192,-8.871517 2.81814,-6.1335015 6.95232,-6.6191377 13.54448,-1.591052 2.45814,1.874922 7.8804,4.297412 12.04945,5.383313 4.16905,1.0859 8.38393,2.641488 9.3664,3.456861 2.42237,2.010392 11.92243,-0.661525 19.85653,-5.584713 4.31926,-2.680126 7.42687,-0.81375 6.92846,4.161093 -0.34506,3.444163 -1.47138,4.708154 -6.4185,7.203074 -6.28944,3.171873 -11.74854,4.687641 -14,3.887225 z"
       id="path30" />
  </g>
</svg>
