<?xml version="1.0" encoding="UTF-8" standalone="no"?>
<!-- Created with Inkscape (http://www.inkscape.org/) -->

<svg
   version="1.1"
   id="svg2"
   width="305.33334"
   height="166.66667"
   viewBox="0 0 305.33334 166.66667"
   xmlns="http://www.w3.org/2000/svg"
   xmlns:svg="http://www.w3.org/2000/svg">
  <defs
     id="defs6" />
  <g
     id="g8">
    <path
       style="fill:#000000;stroke-width:1.33333"
       d="m 58.666668,157.92547 c -1.1,-0.23753 -5.993243,-0.80961 -10.873874,-1.27128 -8.497646,-0.80384 -9.315605,-1.20667 -19.292772,-9.50151 -8.956216,-7.44602 -10.652652,-9.53884 -12.083944,-14.90737 -3.957781,-14.84498 -0.352438,-41.776644 6.592473,-49.245308 5.525642,-5.942359 8.527522,-1.793867 4.432342,6.125337 -1.040843,2.012768 -2.861495,7.532972 -4.045894,12.267121 -1.184399,4.73415 -2.774861,9.84669 -3.53436,11.3612 -1.088888,2.17134 -0.652943,4.12277 2.061504,9.22795 9.40504,17.68845 17.039173,23.34545 32.411192,24.01713 4.879948,0.21324 8.333333,-0.18536 8.333333,-0.96184 0,-0.7293 1.365957,-0.98315 3.035461,-0.56414 1.988754,0.49915 5.391589,-0.58378 9.868243,-3.1405 6.470495,-3.69546 6.881739,-4.25832 7.756118,-10.61582 0.507836,-3.6924 1.467127,-7.04954 2.131757,-7.4603 2.27167,-1.40397 1.209912,-5.39544 -2.934203,-11.03056 -3.659186,-4.97572 -4.164878,-6.75082 -4.333333,-15.211007 -0.184989,-9.290653 -0.08183,-9.616797 3.439781,-10.874245 5.447169,-1.945001 10.057114,1.073823 11.846138,7.757447 2.218595,8.288455 5.3416,12.900495 8.1351,12.013865 1.7532,-0.55644 2.16268,-0.20851 1.57056,1.33451 -1.28436,3.34701 2.72333,2.4846 6.63589,-1.42797 3.94353,-3.94352 4.15715,-4.82637 2.00261,-8.276334 -1.18627,-1.899525 -1.01674,-3.178673 0.78595,-5.929916 4.53288,-6.918059 9.99417,-5.889134 10.03951,1.891479 0.0112,1.926874 0.86155,4.201485 1.8896,5.05469 1.02805,0.853207 2.22558,2.971271 2.66117,4.706811 0.74439,2.96587 1.09285,3.06822 5.79749,1.7029 6.74933,-1.95871 8.02833,-3.09921 11.14308,-9.936492 3.3872,-7.435358 6.06564,-7.052718 8.9846,1.283525 2.55273,7.290387 4.82799,10.121157 10.68177,13.289817 2.86119,1.54876 4.18255,3.24541 4.15364,5.33333 -0.0532,3.83846 -2.91974,7.72868 -5.69504,7.72868 -3.31518,0 -11.59589,-5.38702 -11.59589,-7.54373 0,-1.12944 -0.64481,-1.54847 -1.5356,-0.99793 -0.84459,0.52198 -2.34459,-0.15728 -3.33333,-1.50948 C 144.0754,110.26011 144,110.27199 144,112.89868 c 0,3.73742 -4.96005,9.76799 -8.03404,9.76799 -4.11644,0 -8.89307,-2.74961 -10.72586,-6.17422 -1.16907,-2.18442 -2.15501,-2.77753 -3.07982,-1.85272 -0.74815,0.74815 -3.49028,1.37935 -6.09361,1.40268 -2.60333,0.0233 -5.89801,0.92332 -7.32151,2 -4.47767,3.38674 -8.09215,2.37655 -12.078491,-3.37574 -4.516126,-6.51677 -6.67558,-6.91691 -5.396802,-1 2.831354,13.10068 2.379686,18.08513 -2.720496,30.02248 C 86.472978,148.54911 75.94295,156 71.150983,156 c -1.646481,0 -3.364423,0.6 -3.817648,1.33334 -0.787264,1.27382 -4.374644,1.51892 -8.666667,0.59213 z M 120,111.41202 c 0,-1.4073 -2.55881,-1.99854 -3.31989,-0.7671 -0.46062,0.7453 0.0979,1.35508 1.2412,1.35508 1.14328,0 2.07869,-0.26459 2.07869,-0.58798 z m 140.78315,12.77645 c -0.38916,-0.62968 -0.66493,-7.19046 -0.61281,-14.57953 0.0521,-7.38906 -0.31399,-14.096009 -0.81355,-14.904322 -1.52876,-2.473581 -4.68253,-24.261083 -4.63754,-32.03795 0.0407,-7.021023 2.67513,-20.862687 4.54745,-23.892167 1.51573,-2.452522 6.78787,-1.591246 9.54207,1.558833 1.44264,1.65 4.05596,3.943376 5.80736,5.096392 3.944,2.596495 2.889,6.570275 -1.74435,6.570275 -6.06196,0 -6.76721,2.641601 -4.72368,17.693155 3.52847,25.988819 1.30945,55.640184 -4.16393,55.640184 -1.3714,0 -2.81186,-0.51519 -3.20102,-1.14487 z m -84.51648,-4.45513 c -0.88,-0.88 -1.6,-3.49786 -1.6,-5.81746 v -4.21745 l 9,-0.72744 c 4.95,-0.40009 9.6,-0.27151 10.33333,0.28574 2.1388,1.62523 19.33334,0.004 19.33334,-1.82275 0,-1.51058 -14.13204,-14.817833 -18.31999,-17.250778 -1.08888,-0.632574 -4.09669,-0.806608 -6.68401,-0.386742 -2.58734,0.419866 -5.81988,0.166315 -7.18346,-0.563445 -2.10358,-1.125809 -2.47921,-0.831223 -2.47921,1.944359 0,4.542004 -1.30672,7.489295 -3.32048,7.489295 -4.87439,0 -2.18923,-14.046549 3.54784,-18.559319 3.67845,-2.893472 11.0162,-3.743307 12.43931,-1.440682 0.45322,0.733334 2.81517,1.333334 5.24876,1.333334 2.43418,0 5.22329,0.962218 6.19985,2.138901 0.97632,1.176395 3.14979,2.661544 4.82992,3.300332 1.68015,0.638787 3.0586,1.926281 3.06323,2.861099 0.004,0.934817 1.87009,2.759325 4.14545,4.054463 3.43253,1.953801 3.8574,2.691718 2.49497,4.333333 -1.41542,1.705484 -0.69696,1.978539 5.20598,1.978539 3.76641,0 7.99543,0.716564 9.39781,1.592361 1.97376,1.23264 3.33719,1.2336 6.03531,0.004 5.18952,-2.364506 10.04539,1.14318 10.04539,7.2564 0,3.70863 -0.67562,4.82154 -3.66667,6.03999 -5.618,2.28858 -14.92401,3.63496 -39.66667,5.73892 -28.00639,2.38148 -26.47668,2.35806 -28.4,0.43474 z m 51.27323,-12.45751 c 1.01113,-2.63495 0.068,-3.55334 -2.5982,-2.5302 -1.15866,0.44462 -1.78034,1.65874 -1.38152,2.69805 0.95644,2.49243 2.99182,2.40658 3.97972,-0.16785 z M 138.7994,75.894376 c -2.68232,-3.628044 -2.84532,-4.564561 -1.40121,-8.050956 1.52595,-3.683943 4.83976,-6.510085 7.63347,-6.510085 1.76426,0 4.30168,6.207024 4.30168,10.522753 0,3.587618 -3.46178,8.143914 -6.18758,8.143914 -0.72101,0 -2.67688,-1.847532 -4.34636,-4.105626 z m -30.96516,1.135047 c -1.14908,-0.932848 -2.861,-3.6614 -3.80426,-6.06345 -1.50328,-3.82815 -1.42087,-4.692396 0.66748,-7 1.31038,-1.44795 4.07551,-2.632638 6.14474,-2.632638 3.08972,0 4.23708,0.982824 6.41868,5.498221 2.79554,5.786095 1.9579,10.501779 -1.86541,10.501779 -1.01422,0 -2.66032,0.31324 -3.65801,0.696088 -0.99769,0.382848 -2.75413,-0.06715 -3.90322,-1 z m 82.83243,-9.961934 c -2.80565,-1.012818 -6.60167,-5.965753 -6.63701,-8.659802 -0.0163,-1.242441 1.3555,-3.869323 3.04846,-5.837518 3.42946,-3.986968 6.41727,-3.768451 11.3535,0.830355 3.7625,3.505297 3.65817,5.495879 -0.55014,10.497177 -3.5705,4.243294 -3.87296,4.376175 -7.21481,3.169788 z M 124.73452,56.874146 c -4.11049,-5.389132 -4.29214,-8.748322 -0.68258,-12.62273 3.01064,-3.231537 9.65708,-4.115183 8.5122,-1.1317 -0.37702,0.98251 0.24181,2.555977 1.37518,3.496593 1.13338,0.940616 2.05844,2.686744 2.0557,3.880285 -0.006,2.786335 -4.89027,10.836741 -6.57423,10.836741 -0.70679,0 -2.81561,-2.006635 -4.68627,-4.459189 z M 230.66667,25.412023 c 0,-1.423388 0.6,-2.958797 1.33334,-3.412023 0.73333,-0.453225 1.33742,-2.438634 1.34244,-4.412022 0.007,-2.560527 1.27102,-4.447055 4.41584,-6.587978 5.62085,-3.8265463 6.08644,-3.7886679 11.62541,0.945813 3.25708,2.784006 6.06533,3.961767 9.53761,3.999999 2.70672,0.0298 5.29214,0.654188 5.74536,1.387522 1.06167,1.71782 15.44398,1.7322 19.94755,0.01995 1.89996,-0.722365 4.75216,-2.522365 6.33821,-4 3.45727,-3.220935 6.17396,-3.4440037 7.26659,-0.596663 1.41939,3.698849 -2.50068,8.516315 -9.70208,11.923119 -10.39532,4.917774 -21.9562,4.633006 -35.65544,-0.878268 l -10.47185,-4.212873 -3.29146,4.205704 c -3.72938,4.765275 -8.43152,5.667456 -8.43152,1.617724 z"
       id="path1568" />
  </g>
</svg>
