<?xml version="1.0" encoding="UTF-8" standalone="no"?>
<!-- Created with Inkscape (http://www.inkscape.org/) -->

<svg
   version="1.1"
   id="svg12"
   width="129.33333"
   height="102.66667"
   viewBox="0 0 129.33333 102.66667"
   xmlns="http://www.w3.org/2000/svg"
   xmlns:svg="http://www.w3.org/2000/svg">
  <defs
     id="defs16" />
  <g
     id="g18">
    <path
       style="fill:#000000;stroke-width:1.33333"
       d="M 14.685504,92.396459 C 8.272205,87.90441 5.7627615,71.653832 10.525703,65.458547 c 4.005101,-5.209542 6.80763,-2.916402 6.80763,5.570273 0,5.880252 0.727557,8.101833 4.199413,12.822825 l 4.199413,5.710315 5.2022,-5.2022 c 5.886857,-5.886857 5.764288,-5.13076 7.032273,-43.380143 0.679115,-20.485807 1.668454,-24.48944 7.314144,-29.59872 2.263487,-2.0484287 4.604147,-2.5652191 10.836108,-2.392488 4.649697,0.128876 8.701302,0.9726361 9.76154,2.032874 5.725962,5.725963 11.419599,25.395314 8.779227,30.328893 -1.893766,3.538536 -4.529462,2.782095 -5.068358,-1.454612 -0.225889,-1.775893 -1.275889,-5.119574 -2.333333,-7.430402 -1.057446,-2.310828 -1.922628,-5.149397 -1.922628,-6.30793 0,-2.795005 -6.040779,-4.203778 -10.098323,-2.355038 -2.517776,1.147176 -3.23501,2.49751 -3.23501,6.090532 0,2.53911 -0.6,4.987383 -1.333334,5.440608 -0.733333,0.453226 -1.333333,3.642597 -1.333333,7.087493 0,3.444896 -0.634092,8.359485 -1.409095,10.921311 -0.775002,2.561825 -1.699616,8.257864 -2.054698,12.657864 -0.852471,10.563404 -4.209529,19.854781 -8.743001,24.198122 -3.037136,2.909762 -5.072168,3.573423 -11.696821,3.814548 -5.219719,0.189988 -8.971177,-0.37433 -10.744213,-1.616213 z m 70.647827,-8.909776 c 0,-3.689563 4.975688,-7.486681 9.810437,-7.486681 1.780676,0 3.563316,-0.848822 3.961423,-1.886272 0.701405,-1.827832 5.789969,-5.153596 10.561469,-6.902728 C 110.95,66.74056 112,65.722875 112,64.949481 c 0,-0.773394 0.93555,-2.439943 2.079,-3.703443 2.6207,-2.89584 3.8435,-14.262891 1.79929,-16.726015 -1.08976,-1.31308 -4.41812,-1.73495 -11.8776,-1.505486 -8.76534,0.269634 -10.820906,-0.09245 -13.328991,-2.347869 -2.675313,-2.405801 -2.881772,-3.485937 -2.110495,-11.041562 1.247419,-12.220025 3.84136,-16.825758 10.473172,-18.595891 6.842774,-1.8264394 9.819704,-0.692064 15.928484,6.06963 5.44763,6.029873 7.52482,11.751268 8.62773,23.764174 0.58085,6.326691 0.25716,8.903563 -1.41904,11.296675 C 120.9772,53.864872 120,56.507214 120,58.031563 c 0,3.033351 -8.84542,17.352791 -12.83601,20.779634 -3.11367,2.6738 -11.050707,5.416199 -12.709119,4.391243 -0.681345,-0.421095 -2.691313,0.186092 -4.466597,1.349301 -4.248811,2.783929 -4.654943,2.691004 -4.654943,-1.065058 z M 101.33333,28.775717 c 0,-0.306688 0.36419,-1.506688 0.80932,-2.666667 0.57563,-1.500081 0.0209,-2.109049 -1.92131,-2.109049 -3.054132,0 -4.807449,1.972971 -3.554676,4 0.791312,1.280371 4.666666,1.924551 4.666666,0.775716 z"
       id="path1429" />
  </g>
</svg>
