<?xml version="1.0" encoding="UTF-8" standalone="no"?>
<!-- Created with Inkscape (http://www.inkscape.org/) -->

<svg
   version="1.1"
   id="svg22"
   width="141.33333"
   height="136"
   viewBox="0 0 141.33333 136"
   xmlns="http://www.w3.org/2000/svg"
   xmlns:svg="http://www.w3.org/2000/svg">
  <defs
     id="defs26" />
  <g
     id="g28">
    <path
       style="fill:#000000;stroke-width:1.33333"
       d="m 35.996899,128.07801 c -1.101705,-0.64583 -5.797337,-1.86226 -10.434738,-2.70318 -9.380477,-1.70101 -19.3321511,-6.63188 -19.9932601,-9.9063 -0.547034,-2.70941 3.4529678,-2.83037 6.3677241,-0.19255 1.180631,1.06846 6.478535,2.61477 11.77312,3.43625 10.021844,1.55494 17.171753,0.41278 21.626027,-3.45466 1.101342,-0.95625 3.501342,-2.39571 5.333333,-3.1988 1.831991,-0.8031 5.430894,-2.95406 7.99756,-4.77991 2.566667,-1.82585 5.768471,-4.06053 7.115119,-4.96596 4.530926,-3.046399 7.872114,-9.136547 8.272753,-15.079156 L 74.45233,81.333333 H 63.420861 c -9.861604,0 -11.405609,-0.346741 -14.559498,-3.269668 -5.679787,-5.263848 -4.879231,-11.162718 2.805302,-20.670816 3.483334,-4.309938 7.161874,-8.197793 8.174534,-8.639678 2.886324,-1.259479 10.473189,5.400532 13.226582,11.610748 3.016757,6.804226 5.015341,8.592394 10.26555,9.184768 3.455264,0.389852 4,0.996049 4,4.451313 0,3.826004 -0.275493,4.017677 -6.333333,4.406388 -6.007377,0.385473 -7.94157,1.775621 -5,3.593612 0.733334,0.453225 1.333334,4.9426 1.333334,9.976389 0,7.66904 -0.510659,9.763171 -3.15089,12.921311 -1.732989,2.07293 -3.603958,5.26897 -4.157708,7.1023 -1.308853,4.3333 -4.408597,7.78528 -9.229491,10.27826 -2.132744,1.10288 -5.097298,3.14145 -6.587896,4.53016 -2.911875,2.71282 -14.38408,3.51264 -18.210448,1.26959 z M 95.666664,77.906417 c -1.566198,-1.593652 -1.172313,-5.642542 0.659026,-6.774373 0.912464,-0.563933 5.32747,-1.132748 9.81113,-1.264032 11.24952,-0.329392 14.19492,-2.077132 13.12368,-7.787333 -0.4982,-2.655632 -0.24897,-4.803107 0.61975,-5.340007 2.34496,-1.449264 1.67013,-4.372895 -1.18147,-5.118605 -1.449,-0.378923 -3.31356,-2.398902 -4.14347,-4.488842 -0.8299,-2.089941 -2.04436,-4.84175 -2.69878,-6.115133 -2.74388,-5.339039 -0.27138,-7.621863 8.30352,-7.666552 2.98762,-0.01557 3.72748,0.817884 5.11028,5.756765 0.88929,3.176235 1.41726,7.526235 1.17328,9.666667 -0.29971,2.629236 0.40298,4.595455 2.16613,6.061128 2.53172,2.104576 2.53944,2.323816 0.25822,7.333333 -3.46833,7.616402 -9.2026,13.350162 -14.35737,14.356091 -8.81912,1.721008 -17.858659,2.383431 -18.843926,1.380893 z m 10.999996,-59.23975 c -4.3671,-4.3671 -2.97376,-7.321284 4.07694,-8.644003 4.22308,-0.7922548 4.91044,-0.5091753 6.33028,2.607026 2.93264,6.436442 2.13193,8.703643 -3.07388,8.703643 -2.88889,0 -5.68254,-1.015873 -7.33334,-2.666666 z"
       id="path1290" />
  </g>
</svg>
