<?xml version="1.0" encoding="UTF-8" standalone="no"?>
<!-- Created with Inkscape (http://www.inkscape.org/) -->

<svg
   version="1.1"
   id="svg42"
   width="250.66667"
   height="154.66667"
   viewBox="0 0 250.66667 154.66667"
   xmlns="http://www.w3.org/2000/svg"
   xmlns:svg="http://www.w3.org/2000/svg">
  <defs
     id="defs46" />
  <g
     id="g48">
    <path
       style="fill:#000000;stroke-width:1.33333"
       d="m 136,148.66994 c -6.83216,-2.45751 -10.40466,-10.25012 -11.52581,-25.14096 -0.83832,-11.13441 -0.74457,-11.7769 1.65186,-11.32069 2.04395,0.38911 2.91181,2.57409 4.43939,11.17692 1.77792,10.01266 2.24209,10.96099 7.29266,14.89966 l 5.39389,4.20639 3.70275,-5.57896 c 2.0365,-3.06843 4.07282,-7.53559 4.52516,-9.92702 0.45232,-2.39144 1.35438,-4.67685 2.00458,-5.07869 0.6502,-0.40185 1.18219,-1.90336 1.18219,-3.3367 0,-1.43334 0.56993,-3.64793 1.26651,-4.92131 1.42517,-2.6053 4.99416,-16.170583 6.9665,-26.478827 1.86859,-9.765975 8.23514,-15.673657 19.72784,-18.305962 10.98694,-2.516463 13.69064,-1.370868 13.11444,5.556749 -0.40265,4.841048 -0.50598,4.92327 -7.07529,5.630078 -11.8626,1.276325 -14.85953,4.517026 -17.83225,19.282717 -0.88583,4.400005 -2.22683,10.400005 -2.97999,13.333335 C 167.10127,115.6 165.72152,121.6 164.78831,126 c -1.39067,6.55692 -6.56791,19.33334 -7.83423,19.33334 -0.17878,0 -3.60812,1.2 -7.62074,2.66666 -4.01263,1.46667 -7.60416,2.59508 -7.98118,2.50759 -0.37702,-0.0875 -2.78549,-0.91444 -5.35216,-1.83765 z m 42.97952,-19.36795 c -7.11745,-1.46416 -8.38061,-2.24063 -7.47678,-4.59597 0.44312,-1.15476 3.62248,-2.188 8.27509,-2.68928 4.15553,-0.44772 8.59736,-1.38464 9.87075,-2.08205 1.27338,-0.69741 3.06178,-1.26802 3.97422,-1.26802 0.91246,0 4.67059,-1.13527 8.35143,-2.52283 3.68084,-1.38755 10.57735,-3.81175 15.32555,-5.38711 6.75861,-2.24235 9.86956,-4.22776 14.32758,-9.14383 4.80571,-5.299494 5.69536,-7.156657 5.70022,-11.899319 0.007,-6.873825 -1.42494,-7.782362 -13.75272,-8.725601 C 213.52268,80.218856 208,76.75119 208,71.208606 c 0,-4.816431 4.09254,-19.715964 5.9474,-21.652493 0.93626,-0.977471 5.25231,-2.099125 9.59123,-2.492565 7.88163,-0.71468 7.89461,-0.709856 13.96661,5.191461 5.72146,5.560611 6.0991,6.370939 6.44344,13.825899 0.87612,18.967714 0.25218,29.663101 -1.98256,33.984602 -5.40508,10.45229 -14.99881,20.71969 -23.96612,25.64902 -6.22942,3.42432 -29.44017,5.55827 -39.02048,3.58746 z M 35.095694,112.89857 c -2.330703,-0.86088 -4.680703,-2.01523 -5.222223,-2.56523 -0.54152,-0.55 -2.118404,-1 -3.504188,-1 -3.567187,0 -10.072041,-7.39615 -14.071879,-16.000005 C 9.5915076,87.512814 8.7635992,83.293018 8.2841298,72.877938 7.9371602,65.341028 8.2603165,58.530933 9.0433692,56.877937 9.7931995,55.295072 11.741594,50.53345 13.373134,46.296554 c 3.305762,-8.584628 8.558248,-13.899972 11.402769,-11.539229 1.955915,1.623265 1.222435,4.64544 -2.081395,8.576009 -2.842482,3.381704 -5.638344,13.059609 -4.574049,15.833118 0.445799,1.161732 -0.510043,4.840208 -2.124093,8.174391 -1.8344,3.789365 -2.632455,7.26614 -2.128634,9.273524 1.19734,4.770581 6.385319,12.286607 9.776842,14.164088 1.637848,0.906682 3.280804,2.602859 3.651013,3.769286 1.049973,3.308172 7.351385,5.406929 15.258951,5.082168 4.815416,-0.197768 7.406629,0.258686 7.777777,1.370091 0.64059,1.91825 3.895592,2.25144 4.556575,0.46642 0.244444,-0.66014 3.444444,-3.680445 7.111111,-6.711798 4.865253,-4.022264 7.469265,-5.314368 9.636921,-4.781815 2.690767,0.661071 2.894702,0.351978 2.167328,-3.284893 -0.875596,-4.377976 1.324951,-8.27171 4.077763,-7.215358 2.415965,0.927094 1.689436,-13.178696 -1.063088,-20.640191 -5.168296,-14.010125 -0.295604,-20.573058 6.572879,-8.852877 2.763933,4.716295 4.607428,6.276552 8.726436,7.385685 2.995957,0.806727 6.138691,2.804903 7.372007,4.68718 3.116223,4.755964 5.327533,4.053438 7.824953,-2.485972 2.25982,-5.917245 9.03022,-11.576879 10.67172,-8.920883 0.46042,0.744976 0.43667,2.002454 -0.0528,2.794392 -0.48944,0.791941 0.46178,2.386642 2.11383,3.543783 2.69598,1.888336 2.78358,2.264872 0.85501,3.675078 -1.90307,1.391557 -1.7026,1.901018 1.75349,4.456217 4.11241,3.040437 8.0102,3.795499 8.0102,1.5517 0,-0.733333 1.43099,-1.333333 3.17999,-1.333333 3.28778,0 7.48668,-4.834384 7.48668,-8.619756 0,-1.125802 0.6,-2.046911 1.33333,-2.046911 0.73333,0 1.33333,-1.4 1.33333,-3.111111 0,-3.954721 1.288,-5.253029 3.43974,-3.467253 2.04684,1.698728 1.05624,14.872577 -1.49726,19.911697 -2.74132,5.40979 -8.26721,9.783825 -12.26496,9.708347 -5.87628,-0.110942 -13.64505,-4.116018 -15.02517,-7.746012 -0.68916,-1.812617 -2.14903,-3.295668 -3.24417,-3.295668 -1.22123,0 -1.69469,0.772563 -1.22445,1.997991 0.42822,1.115915 -0.62038,3.460311 -2.37518,5.310297 -2.56445,2.703555 -4.43444,3.316542 -10.17488,3.335343 -6.177291,0.02023 -7.17879,-0.360409 -8.231198,-3.128451 -1.800632,-4.736021 -4.996503,-5.408413 -5.058545,-1.064286 -0.07063,4.945082 -3.836897,21.525313 -5.806879,25.563591 -0.898236,1.841297 -4.369102,5.410247 -7.713032,7.930997 -9.174776,6.91621 -29.371142,10.11198 -39.728322,6.28642 z M 70.666668,96.511161 c 0,-0.281138 -1.2,-0.511159 -2.666667,-0.511159 -1.466667,0 -2.666667,0.543828 -2.666667,1.208507 0,0.66468 1.2,0.8947 2.666667,0.511158 1.466667,-0.383541 2.666667,-0.92737 2.666667,-1.208506 z M 133.01635,39.902353 c -6.26912,-3.65244 -5.67874,-9.427203 1.38612,-13.558059 3.90841,-2.285269 4.00616,-2.270043 6.11804,0.953089 2.86985,4.379948 2.704,7.601016 -0.57245,11.11787 -3.0491,3.272823 -3.64662,3.401015 -6.93171,1.4871 z m -32.96944,-5.148031 c -2.301363,-4.300141 -1.564762,-7.905279 2.10673,-10.310933 3.15177,-2.065118 3.82469,-2.091154 7,-0.270836 2.68847,1.541225 3.44372,2.92856 3.21773,5.91076 -0.50943,6.722486 -9.41929,10.099357 -12.32446,4.671009 z M 116.8817,21.842051 c -2.97606,-1.612816 -3.61996,-2.708612 -3.01289,-5.127387 0.47748,-1.902397 0.0138,-3.705483 -1.21503,-4.72536 -3.73388,-3.0988478 -2.18426,-5.0452881 4.77919,-6.0030067 5.92091,-0.8143337 7.16745,-0.5537364 9.97708,2.0857727 5.32491,5.002492 5.41196,7.702586 0.38692,12.001194 -5.16368,4.417207 -5.82923,4.525058 -10.91527,1.768787 z"
       id="path1012" />
  </g>
</svg>
