<?xml version="1.0" encoding="UTF-8" standalone="no"?>
<!-- Created with Inkscape (http://www.inkscape.org/) -->

<svg
   version="1.1"
   id="svg52"
   width="242.66667"
   height="200"
   viewBox="0 0 242.66667 200"
   xmlns="http://www.w3.org/2000/svg"
   xmlns:svg="http://www.w3.org/2000/svg">
  <defs
     id="defs56" />
  <g
     id="g58">
    <path
       style="fill:#000000;stroke-width:1.33333"
       d="m 98.824047,194.82404 c -1.569731,-1.56972 -3.168432,-2.10191 -4.269672,-1.42131 -2.611268,1.61386 -3.887707,0.25192 -3.887707,-4.14809 0,-2.15672 -0.503759,-3.92131 -1.119463,-3.92131 -1.514834,0 -4.803359,-17.87397 -3.779445,-20.54225 1.522708,-3.96811 3.399141,-2.14511 4.332273,4.20892 1.78547,12.15789 6.300618,19.02733 12.465717,18.96561 2.60614,-0.0261 4.42799,-1.55325 7.55539,-6.33333 4.38044,-6.69527 5.25206,-9.32231 10.05285,-30.29895 5.18888,-22.6724 11.6913,-34.05933 20.91172,-36.62022 7.73232,-2.14759 11.97201,-1.71945 13.62881,1.3763 2.47007,4.61537 -1.22117,8.48538 -9.95836,10.44068 -5.05736,1.13179 -8.13152,2.64534 -9.44525,4.65034 -1.96445,2.99813 -8.64424,33.14866 -8.64424,39.01746 0,5.15935 -5.53149,15.39699 -11.59977,21.46878 -6.37047,6.37416 -11.94288,7.45734 -16.242853,3.15737 z M 51.590181,145.8124 c -0.376207,-0.3762 -5.0879,-0.97652 -10.47043,-1.33404 -5.382529,-0.35751 -10.986417,-1.41648 -12.453084,-2.35327 -1.466667,-0.9368 -4.274711,-2.09906 -6.240097,-2.58284 -4.680852,-1.15217 -7.759903,-4.34137 -7.759903,-8.03749 0,-1.63428 -0.704973,-3.6764 -1.566606,-4.53803 -0.861633,-0.86164 -1.787961,-6.06052 -2.058506,-11.55308 -0.665354,-13.5079 2.888491,-20.655265 8.4826,-17.059899 1.502507,0.965669 1.471239,3.489419 -0.18146,14.646249 -0.487257,3.28931 -0.306411,5.66667 0.431064,5.66667 0.698768,0 1.680009,1.65 2.180537,3.66666 1.175543,4.73636 5.800706,9.67699 8.197935,8.75709 1.027596,-0.39433 3.213725,0.13662 4.858063,1.17987 1.644339,1.04326 7.789707,2.6012 13.656373,3.4621 14.923981,2.19001 17.110231,2.32424 18.972445,1.16481 0.901512,-0.56128 2.874174,-0.35953 4.383697,0.44833 3.394359,1.81662 7.977192,0.51966 7.977192,-2.25756 0,-1.45656 0.844371,-1.84485 2.863545,-1.31682 1.593618,0.41674 5.091525,-0.38779 7.887394,-1.81414 6.919911,-3.53028 7.728109,-7.95698 3.286409,-18.00045 -2.979297,-6.73672 -3.230158,-8.34231 -1.922494,-12.30457 1.022432,-3.097998 2.704585,-4.975434 5.254292,-5.864267 2.062713,-0.719066 4.079663,-2.165467 4.482103,-3.214224 1.06462,-2.77435 4.81542,-2.337479 4.81542,0.56087 0,1.357236 -0.66823,4.384595 -1.48496,6.727466 -1.23161,3.532985 -1.10327,4.681525 0.75219,6.731795 2.56971,2.8395 1.70053,11.41637 -1.27257,12.55725 -0.95876,0.36791 -2.16618,2.59473 -2.68315,4.94847 -1.34206,6.11037 -7.301276,13.95304 -11.978179,15.76398 -2.2,0.85187 -10.140535,2.14236 -17.645633,2.86776 -7.505099,0.7254 -15.093406,1.86936 -16.862903,2.54212 -1.769499,0.67276 -3.525076,0.9154 -3.901284,0.53919 z m 118.561729,-5.43827 c -0.50205,-0.50205 -2.96152,-0.77484 -5.46551,-0.60621 -4.84945,0.3266 -7.35306,-2.26784 -7.35306,-7.61985 0,-3.26778 4.66728,-4.34934 17.33333,-4.01669 7.17076,0.18832 30.03927,-0.69338 33.66667,-1.29802 2.18457,-0.36415 0.77196,-3.27714 -3.69092,-7.61119 -2.58002,-2.50553 -5.21972,-4.5555 -5.86602,-4.5555 -0.6463,0 -4.31452,-2.11268 -8.15158,-4.69484 -6.06982,-4.08468 -7.92543,-4.66383 -14.27799,-4.45624 -4.31137,0.14088 -7.92505,0.99041 -8.82416,2.07444 -4.74403,5.71977 -5.24639,6.04756 -6.3222,4.1252 -1.76688,-3.15725 1.08643,-11.950843 5.21852,-16.082938 3.29208,-3.292077 5.05344,-3.952585 10.77021,-4.038827 3.75898,-0.05671 7.54916,0.611566 8.42266,1.48505 0.87348,0.873484 2.51814,1.590733 3.65481,1.593889 1.95523,0.0055 5.04796,2.164231 25.14636,17.552756 6.74431,5.16383 9.44579,6.44151 13.61976,6.44151 3.78313,0 5.58411,0.70514 6.58697,2.57901 1.90532,3.56014 1.73272,11.47197 -0.28642,13.12845 -0.91667,0.75203 -6.46667,1.71594 -12.33334,2.14202 -5.86666,0.42608 -15.16666,1.63602 -20.66666,2.68877 -10.50238,2.01024 -29.62342,2.72721 -31.18143,1.16921 z M 62.71358,90.754321 c -2.31013,-4.316514 -1.56323,-8.054509 2.286421,-11.442808 4.456692,-3.922589 7.777156,-4.175428 9.619755,-0.732501 C 76.381318,81.87052 76.41184,88 74.666668,88 c -0.733334,0 -1.333334,0.9 -1.333334,2 0,2.415395 -3.504252,2.677868 -4.450292,0.333333 C 68.481286,89.337679 68.168148,89.606083 68.105264,91 67.964004,94.131263 64.4348,93.970451 62.71358,90.754321 Z M 32.097367,86.558905 c -4.733653,-4.733653 -4.789004,-4.978105 -2.021761,-8.928897 2.618246,-3.738069 6.281157,-3.765184 11.261091,-0.08336 3.859116,2.853168 3.87413,2.916336 1.612677,6.784703 -3.747117,6.409694 -6.172099,6.907461 -10.852007,2.227554 z m 15.5693,-17.851616 c -3.849638,-5.294208 -3.04215,-8.277538 2.523042,-9.321574 7.241614,-1.358535 9.506472,1.375068 6.459409,7.796277 -2.649191,5.582753 -5.660307,6.094067 -8.982451,1.525297 z M 42.033521,49.387569 C 41.532041,48.576157 42.481902,48 44.321087,48 48.650139,48 58.666667,41.275161 58.666667,38.368747 58.666667,37.065936 58.051817,36 57.300333,36 c -0.751484,0 -1.968536,-1.583912 -2.704562,-3.519805 -2.614165,-6.875775 6.260463,-11.497326 11.327135,-5.898718 6.72341,7.429286 -0.731525,20.552379 -12.589572,22.161714 -3.3,0.447865 -6.999505,1.08827 -8.221124,1.423124 -1.221619,0.334853 -2.607028,-0.01559 -3.078689,-0.778746 z m 85.115339,-6.427358 c -3.90406,-3.509542 -5.91634,-6.643143 -6.88049,-10.714584 -1.63741,-6.914504 0.5417,-8.768892 5.03008,-4.280515 1.84087,1.840871 3.74558,2.549893 5.42127,2.018049 1.76669,-0.560725 3.58479,0.260688 5.75136,2.598463 C 138.21351,34.461731 140.59922,36 141.77266,36 c 2.60081,0 4.89401,-3.983007 4.89401,-8.500323 0,-4.38928 2.60517,-5.877749 4.86893,-2.781872 4.57714,6.259598 0.66331,18.049092 -7.06364,21.277619 -7.45876,3.116467 -11.21128,2.458979 -17.3231,-3.035213 z m 67.53218,-0.942896 c -2.85205,-3.436515 -0.2548,-8.532962 9.23087,-18.113167 7.94712,-8.026336 9.77621,-9.237481 13.95053,-9.237481 3.98408,0 4.80423,0.475653 4.80423,2.786276 0,1.532452 -1.32009,3.85522 -2.93353,5.161706 -2.76726,2.24079 -2.80435,2.504612 -0.65442,4.654551 2.79746,2.797452 1.8063,4.774176 -2.22648,4.440412 -3.17082,-0.262425 -10.08934,3.89916 -15.23953,9.166789 -3.56787,3.64923 -4.69587,3.834892 -6.93167,1.140914 z M 37.874363,28.640785 C 35.286975,18.331809 50.292849,6.8087712 63.511625,8.9538832 c 2.504223,0.4063793 4.877109,1.2630768 5.27308,1.9037718 1.148623,1.85851 -5.143088,3.607794 -7.556123,2.100829 -2.904144,-1.813668 -11.016223,-0.123739 -14.800107,3.083196 -2.90805,2.464645 -2.954098,2.732893 -0.761808,4.437755 2.898627,2.254153 3.009764,6.653658 0.238095,9.425326 -3.215807,3.215808 -7.057821,2.611079 -8.030399,-1.263976 z"
       id="path873" />
  </g>
</svg>
