<?xml version="1.0" encoding="UTF-8" standalone="no"?>
<!-- Created with Inkscape (http://www.inkscape.org/) -->

<svg
   version="1.1"
   id="svg62"
   width="153.33333"
   height="134.66667"
   viewBox="0 0 153.33333 134.66667"
   xmlns="http://www.w3.org/2000/svg"
   xmlns:svg="http://www.w3.org/2000/svg">
  <defs
     id="defs66" />
  <g
     id="g68">
    <path
       style="fill:#000000;stroke-width:1.33333"
       d="M 22,127.11307 C 11.080426,121.34346 7.3924526,114.0405 7.5066465,98.413226 7.5896168,87.058837 7.6953048,86.690089 12.776199,80.027579 c 2.851686,-3.739377 6.463557,-7.636687 8.026379,-8.660687 1.562822,-1.024001 3.165057,-3.09913 3.560525,-4.611398 0.560838,-2.144648 -0.274798,-3.221184 -3.798187,-4.893142 -4.529959,-2.149607 -7.205816,-7.616796 -7.224147,-14.760051 -0.01205,-4.694629 5.967475,-10.562057 12.678792,-12.441111 6.731228,-1.884627 22.710662,-1.124699 27.23203,1.295064 4.284745,2.293126 6.991548,8.725134 5.967965,14.181302 -0.703829,3.751732 -2.226124,5.605341 -7.360836,8.962853 -3.560424,2.32811 -6.287684,4.832926 -6.060578,5.566259 0.227106,0.733334 3.587425,1.656776 7.467377,2.052095 5.273034,0.537257 7.701596,1.517945 9.617136,3.883537 3.860506,4.767525 2.64223,7.177391 -4.220716,8.348985 -7.323077,1.250144 -9.934288,0.539949 -16.250423,-4.419776 -2.706998,-2.125662 -6.035229,-3.864841 -7.396069,-3.864841 -3.978766,0 -12.273681,9.579687 -14.540467,16.792595 -3.124267,9.941406 -2.535012,17.988937 1.536578,20.985287 1.826976,1.34449 3.321775,3.30934 3.321775,4.36633 0,1.05699 1.65,2.5072 3.666666,3.2227 2.016667,0.7155 4.708526,1.90065 5.981908,2.63367 3.035416,1.74732 9.090047,1.68877 16.427665,-0.15887 4.743093,-1.19432 5.92376,-2.07129 5.92376,-4.4 0,-3.55878 2.366484,-6.10838 5.66968,-6.10838 2.141583,0 2.416139,0.92995 2.066667,7 l -0.403014,7 -7.333333,3.62388 c -6.344265,3.1351 -8.951808,3.62244 -19.333333,3.61328 C 29.635335,129.22982 24.788221,128.5863 22,127.11307 Z M 122,82.667134 c -1.46667,-0.630504 -5.53594,-1.188543 -9.04283,-1.240085 -8.57639,-0.126051 -14.527465,-2.834219 -18.939661,-8.618907 -3.856187,-5.055722 -7.350844,-6.307114 -7.350844,-2.632243 0,1.196744 -2.142722,4.196744 -4.761603,6.666667 -5.385345,5.079033 -11.645593,6.045963 -13.745095,2.123005 -1.802379,-3.367774 0.340634,-6.486544 6.679057,-9.720167 3.514078,-1.792749 6.01039,-4.28601 7.241629,-7.23278 1.033417,-2.473316 2.389509,-4.812488 3.013536,-5.198157 0.624026,-0.385671 0.854505,-4.078731 0.512173,-8.206803 -0.604139,-7.285107 -0.529164,-7.492396 2.552273,-7.056624 2.503712,0.354072 3.618715,1.857986 5.27553,7.115628 2.802978,8.894812 6.976035,9.682209 14.636265,2.761656 2.89882,-2.618911 6.12282,-4.761656 7.16444,-4.761656 1.04162,0 3.70472,-1.523736 5.91799,-3.386082 3.28729,-2.766072 5.60415,-3.437457 12.65318,-3.666666 7.43945,-0.241904 9.08977,0.15115 11.97097,2.851117 1.83804,1.722436 4.06971,4.888759 4.95923,7.036274 2.39013,5.77027 -0.3391,17.465089 -6.10103,26.143195 -4.45307,6.706811 -4.92639,7.022163 -10.53979,7.022163 -3.23252,0 -6.67639,0.258038 -7.65304,0.573418 -0.97664,0.315379 -2.97572,0.05755 -4.44238,-0.572953 z m 18.30352,-16.044196 c 5.01546,-6.193835 0.43109,-17.289603 -7.14345,-17.289603 -3.49003,0 -17.44825,5.527304 -25.16007,9.96312 -5.36244,3.084459 -1.756,11.028125 4.37274,9.631541 1.62833,-0.371053 4.16059,-0.142048 5.62726,0.508903 1.46666,0.650949 6.49684,1.010405 11.17816,0.798789 7.13604,-0.32258 8.93389,-0.906398 11.12536,-3.61275 z M 32.102299,16.548142 c -2.256265,-1.898522 -4.1023,-4.057796 -4.1023,-4.798387 0,-2.369085 8.181239,-9.0830883 11.068048,-9.0830883 1.53232,0 4.438591,1.5832486 6.45838,3.5183303 l 3.672345,3.5183302 -2.626485,5.1483368 C 44.434678,19.041726 43.225355,20 40.0752,20 37.856393,20 34.453929,18.526908 32.102299,16.548142 Z"
       id="path718" />
  </g>
</svg>
