<?xml version="1.0" encoding="UTF-8" standalone="no"?>
<!-- Created with Inkscape (http://www.inkscape.org/) -->

<svg
   version="1.1"
   id="svg82"
   width="386.66666"
   height="230.66667"
   viewBox="0 0 386.66666 230.66667"
   xmlns="http://www.w3.org/2000/svg"
   xmlns:svg="http://www.w3.org/2000/svg">
  <defs
     id="defs86" />
  <g
     id="g88">
    <path
       style="fill:#000000;stroke-width:1.33333"
       d="M 38.666666,222.82502 C 33.51341,221.12424 21.333333,214.27039 21.333333,213.07138 21.333333,212.48212 20.523416,212 19.533517,212 17.643953,212 7.9999999,196.84782 7.9999999,193.879 c 0,-0.94689 -0.6,-2.09244 -1.3333333,-2.54566 -0.7702422,-0.47604 -1.292178,-7.12559 -1.2358823,-15.74536 0.075616,-11.57795 0.6113309,-15.79698 2.3908765,-18.82938 3.0760612,-5.2417 4.8194132,-5.57206 8.7360192,-1.65546 2.997356,2.99736 3.170814,3.77088 1.890781,8.43181 -0.775128,2.82245 -2.273063,6.80981 -3.328743,8.8608 -1.68545,3.27453 -1.66752,4.23404 0.147098,7.87152 1.136584,2.27833 2.066517,4.76164 2.066517,5.51844 0,0.7568 2.4,4.22227 5.333333,7.70103 3.064303,3.63408 5.333334,7.72114 5.333334,9.6066 0,2.66216 0.817946,3.42076 4.333333,4.01892 2.383333,0.40553 7.447205,1.48226 11.253048,2.39273 6.669131,1.59545 7.016043,1.53783 9.579827,-1.59145 2.308038,-2.81714 3.022156,-3.02628 5.395527,-1.5802 3.522505,2.14624 4.104931,2.09894 4.104931,-0.33334 0,-1.1 1.153753,-2 2.563897,-2 1.674748,0 4.21792,-2.6443 7.333333,-7.62494 4.884753,-7.80931 5.744092,-12.30459 3.487051,-18.24106 -0.705314,-1.8551 -0.805352,-3.66774 -0.222308,-4.02809 1.993025,-1.23176 -0.09609,-8.559 -3.297942,-11.56697 -7.007797,-6.58348 -2.407469,-17.0214 6.745128,-15.30436 4.243624,0.7961 4.866154,1.48176 6.217319,6.84772 0.825829,3.27966 2.027712,6.28824 2.670848,6.68573 0.643137,0.39748 1.16934,2.12308 1.16934,3.83468 0,4.7274 7.430766,6.62965 10.666666,2.73063 0.912922,-1.1 3.456362,-2 5.652102,-2 3.53602,0 3.8824,-0.34284 3.03105,-3 -2.00108,-6.24558 -2.26996,-11.75468 -0.66791,-13.68503 2.86912,-3.45708 6.63371,-2.34971 8.68262,2.55403 1.65028,3.94968 1.63906,5.04896 -0.0868,8.50861 -1.09008,2.18512 -1.66277,4.79407 -1.27263,5.79767 0.95341,2.4526 7.00738,5.15805 11.54215,5.15805 3.81346,0 9.11946,-4.44396 9.11946,-7.63787 0,-2.95816 5.30256,-12.43401 7.41054,-13.24293 2.55527,-0.98055 5.92279,1.87201 5.92279,5.01708 0,4.52245 4.00252,12.56476 6.91301,13.89039 4.05796,1.84825 5.62467,4.98286 4.57694,9.15738 -1.08551,4.32498 -3.96803,5.68315 -7.91323,3.72851 -1.60053,-0.79297 -4.11005,-1.62787 -5.57672,-1.85533 -2.10929,-0.32712 -2.75323,-1.61318 -3.08077,-6.15292 -0.26774,-3.71059 -0.9747,-5.55014 -2,-5.20407 -0.87224,0.2944 -1.64706,1.68228 -1.72182,3.08419 -0.0748,1.40189 -0.22476,3.19758 -0.33333,3.99042 C 140.00168,176.87074 125.36214,184 122.62306,184 c -0.78419,0 -2.29419,-2.07836 -3.35556,-4.61857 C 116.48971,172.73324 108,168.95728 108,174.36999 c 0,3.91317 -3.90642,8.29668 -7.3937,8.29668 -3.215767,0 -6.032662,-1.77555 -12.353374,-7.78659 -2.590407,-2.46349 -3.518902,-2.74402 -4.413038,-1.33333 -1.577145,2.48829 -1.47226,3.34073 0.999043,8.11971 1.656778,3.20385 2.002592,6.44417 1.457261,13.65469 -0.920119,12.16607 -4.287541,17.41667 -14.96286,23.33056 -6.857472,3.79889 -9.52337,4.49193 -18.666666,4.85263 -5.866667,0.23144 -12.166667,-0.0743 -14,-0.67932 z M 202.26376,204.29146 c -6.66903,-7.36919 2.11753,-14.7835 9.92186,-8.3723 2.97807,2.44647 3.03766,2.78778 1.10566,6.33334 -2.50846,4.60341 -7.81823,5.58518 -11.02752,2.03896 z m -13.45884,-18.60558 c -0.17712,-0.17276 -5.3807,-0.58817 -11.56348,-0.92312 -6.1828,-0.33494 -11.72766,-0.64358 -12.32194,-0.68588 -0.59426,-0.0423 -0.89426,-2.32688 -0.66666,-5.07688 l 0.41382,-5 12.66667,-0.34344 c 6.96667,-0.18889 14.05369,-1.0601 15.74895,-1.93601 2.39221,-1.23601 3.65684,-1.23375 5.64857,0.0107 2.71477,1.6954 14.60248,2.24913 14.60248,0.68018 0,-0.50736 -2.36219,-3.12518 -5.24929,-5.81737 -3.92111,-3.65637 -4.86572,-5.27845 -3.73334,-6.41084 1.13239,-1.13295 0.46828,-1.51652 -2.6247,-1.51652 -2.27736,0 -6.58808,-1.30636 -9.57936,-2.90301 -4.79568,-2.5598 -5.83502,-2.69092 -8.79067,-1.10911 -1.84357,0.98665 -3.73175,1.41412 -4.19595,0.94993 -1.86386,-1.86388 -5.67833,1.94323 -6.07568,6.06396 -0.48577,5.03771 -2.3611,5.36875 -4.80736,0.84863 -2.46832,-4.56091 -1.29076,-15.42921 2.03171,-18.75168 2.56963,-2.56963 4.29696,-2.67299 42.40349,-2.53735 26.92746,0.0959 40.29867,0.61771 41.50628,1.61994 1.36051,1.12913 1.78154,0.9733 1.78154,-0.65931 0,-1.24551 1.53049,-2.47847 3.66666,-2.95385 2.01667,-0.4488 4.65355,-1.08063 5.85974,-1.40407 1.20617,-0.32344 4.70365,0.41647 7.77214,1.64424 l 5.57911,2.23231 -0.77639,8.81302 c -0.427,4.84716 -0.92448,11.10466 -1.10548,13.90554 l -0.32912,5.09252 7.76988,0.55925 c 9.19096,0.66153 10.20329,1.15236 10.31464,5.00107 l 0.0845,2.9213 1.1911,-2.9601 c 0.6551,-1.62807 2.86708,-3.37298 4.91549,-3.87759 9.99212,-2.46148 13.91827,-8.74987 12.20999,-19.55639 -0.62208,-3.93517 -0.57232,-7.38586 0.1164,-8.07461 1.62565,-1.62565 8.0704,0.106 8.04178,2.16076 -0.0503,3.61048 6.11,14.20632 8.28834,14.25613 1.24601,0.0285 3.86012,-2.03888 5.80913,-4.59417 1.949,-2.55528 5.59545,-5.91405 8.10321,-7.46393 2.50776,-1.54988 5.41607,-3.67447 6.46291,-4.7213 3.12697,-3.12698 16.00956,-4.93436 21.72535,-3.04798 5.67161,1.87181 7.80134,3.72581 9.54348,8.30796 2.52552,6.64265 1.32896,12.53878 -5.48282,27.0169 -0.71912,1.52846 -2.70458,4.52846 -4.41217,6.66667 -3.07451,3.84988 -3.23537,3.88649 -16.55501,3.76837 -18.62342,-0.16514 -27.42264,-2.42754 -30.81975,-7.92416 -1.45189,-2.34922 -2.63981,-5.30049 -2.63981,-6.55838 0,-3.70638 -3.02451,-1.60878 -4.65262,3.22674 -2.9569,8.78211 -15.54166,15.31414 -20.31265,10.54315 -0.82424,-0.82424 -6.79424,-1.77473 -13.26666,-2.1122 -6.47244,-0.33748 -13.26807,-1.33097 -15.1014,-2.20777 -3.76074,-1.79859 -3.89559,-3.31052 -1.52142,-17.05735 0.84312,-4.88176 1.16616,-9.83176 0.71787,-11 -0.95956,-2.50056 -9.82511,-2.96209 -12.15444,-0.63276 -0.98188,0.98188 -6.88041,1.34808 -17.26667,1.072 -26.48914,-0.70413 -30.65076,-0.23873 -27.35312,3.05891 0.86778,0.86777 1.57778,2.63894 1.57778,3.93593 0,1.49727 0.6962,2.09099 1.90706,1.62633 1.04888,-0.40249 6.11695,2.01635 11.26238,5.37519 7.09506,4.63153 10.62165,6.10699 14.59677,6.10699 8.0464,0 14.90045,3.34529 14.90045,7.27253 0,1.78021 -0.75,3.72021 -1.66666,4.31112 -1.42115,0.91609 -63.28448,1.65707 -64.19508,0.76889 z m 25.86174,-7.01921 c 1.77778,-1.14889 1.77778,-1.29249 0,-1.29249 -1.1,0 -2.9,0.58161 -4,1.29249 -1.77777,1.14889 -1.77777,1.29249 0,1.29249 1.1,0 2.9,-0.58161 4,-1.29249 z m 153.22659,-7.47993 c 5.48506,-2.73631 6.1381,-4.59811 4.12936,-11.77264 -1.54415,-5.51512 -1.92731,-5.85928 -7.16036,-6.4313 -3.04091,-0.3324 -7.32892,0.17263 -9.52892,1.1223 -2.2,0.94965 -6.4,2.41528 -9.33334,3.25693 -2.93333,0.84165 -7.00833,2.97224 -9.05556,4.73464 -3.09974,2.66847 -3.48352,3.65037 -2.29485,5.87143 1.61992,3.02684 4.26013,3.8251 14.68375,4.43962 4.03333,0.23778 8.89114,0.54332 10.79514,0.67898 1.904,0.13565 5.39815,-0.71934 7.76478,-1.89996 z M 221,93.608028 c -1.28334,-0.258624 -2.33334,-1.326229 -2.33334,-2.372459 0,-2.476388 -1.58064,-2.401498 -6.28376,0.297718 -4.6167,2.649626 -12.23148,1.65066 -15.57434,-2.043167 -5.46002,-6.033247 -3.25043,-23.616443 2.38049,-18.943196 1.17935,0.978777 2.14428,3.361801 2.14428,5.295608 0,4.311701 4.99119,8.172859 6.82575,5.280363 0.62425,-0.984258 1.51186,-3.746187 1.97245,-6.137621 0.46059,-2.391433 1.31527,-4.64338 1.89929,-5.004326 2.33938,-1.445814 5.08762,1.122225 5.91378,5.526008 0.75798,4.040385 1.32596,4.600785 4.2983,4.240974 2.58359,-0.312752 3.79324,-1.560949 4.92434,-5.081262 1.16972,-3.64053 2.30553,-4.759423 5.16544,-5.088502 2.92517,-0.336585 3.93561,0.287219 5,3.0868 1.56826,4.124836 1.76466,10.921397 0.33398,11.557258 -0.55,0.244444 -1.91377,1.854961 -3.0306,3.578928 C 232.47014,91.14452 224.85898,94.385708 221,93.608028 Z M 99.286497,90.590888 c -1.785949,-2.889725 0.857193,-7.508424 9.331183,-16.305544 4.79361,-4.976395 8.71565,-9.626395 8.71565,-10.333334 0,-0.706938 3.3,-1.285342 7.33333,-1.285342 7.30961,0 7.33334,0.01336 7.33334,4.127506 0,5.409003 -3.98563,10.826376 -11.00099,14.952829 -3.11612,1.832912 -7.12027,4.889664 -8.8981,6.792782 -3.37087,3.608424 -11.08848,4.843722 -12.814413,2.051103 z M 325.59999,90.400001 c -2.79598,-2.795985 -1.7662,-5.176541 4.78862,-11.069889 3.51374,-3.159155 7.54064,-7.883076 8.94865,-10.497603 2.17359,-4.036113 3.45703,-4.888197 8.50235,-5.644791 10.07734,-1.51119 13.13445,2.624671 7.9054,10.694955 -2.03571,3.14182 -4.10863,4.756575 -6.12019,4.767489 -1.67303,0.0091 -3.37065,0.873352 -3.77252,1.920608 -1.18681,3.092765 -12.71456,11.429231 -15.80445,11.429231 -1.56632,0 -3.56786,-0.72 -4.44786,-1.6 z M 203.11432,31.243386 c -1.17015,-3.049362 1.28652,-6.856486 10.9258,-16.931819 7.22116,-7.5478349 9.2936,-8.9782336 13.0081,-8.9782336 4.25298,0 7.61844,1.9285388 7.61844,4.3656498 0,1.9650468 -15.02833,17.1155488 -20.30684,20.4719188 -5.74376,3.652204 -10.09629,4.067305 -11.2455,1.072484 z"
       id="path424" />
  </g>
</svg>
