<?xml version="1.0" encoding="UTF-8" standalone="no"?>
<!-- Created with Inkscape (http://www.inkscape.org/) -->

<svg
   version="1.1"
   id="svg2"
   width="206.66667"
   height="156"
   viewBox="0 0 206.66667 156"
   xmlns="http://www.w3.org/2000/svg"
   xmlns:svg="http://www.w3.org/2000/svg">
  <defs
     id="defs6" />
  <g
     id="g8">
    <path
       style="fill:#000000;stroke-width:1.33333"
       d="m 98.712631,150.85881 c -4.798937,-1.39753 -8.64842,-8.89212 -9.001712,-17.52548 C 89.545868,129.3 89.055401,124.2 88.620993,122 c -0.997709,-5.05276 2.506336,-10.57106 4.656566,-7.33333 0.730529,1.1 0.993192,3.07617 0.583695,4.39149 -1.789071,5.74658 4.384566,20.287 8.933676,21.04099 2.50845,0.41574 11.87174,-3.81452 11.87174,-5.36358 0,-0.67574 0.69378,-2.9177 1.54174,-4.9821 0.84797,-2.06441 1.42984,-4.68783 1.29306,-5.82983 -0.13678,-1.14199 1.29339,-5.56327 3.17816,-9.82506 2.22615,-5.03373 3.3253,-9.71033 3.13704,-13.34732 -0.50113,-9.681005 7.96334,-24.53156 16.46355,-28.884587 5.47969,-2.806196 14.36314,-3.356642 16.68588,-1.033908 2.23206,2.232056 26.97997,0.192554 27.93736,-2.302348 0.39541,-1.030453 -0.5461,-4.564808 -2.09226,-7.85412 C 181.26504,57.386985 180,54.172919 180,53.533927 c 0,-0.638991 -1.48144,-3.344826 -3.29209,-6.012964 -1.81064,-2.66814 -2.97228,-5.68454 -2.58143,-6.703111 0.75771,-1.974545 6.32836,-3.484519 12.85524,-3.484519 3.76522,0 3.9388,0.235635 3.19247,4.333334 -0.60131,3.301482 0.15709,6.050894 3.18495,11.546358 2.18581,3.967164 3.9742,8.41445 3.9742,9.882856 0,2.956106 -6.1843,14.237452 -7.80479,14.237452 -0.56415,0 -2.26809,1.157448 -3.78655,2.572107 -1.51846,1.414659 -3.5816,2.717827 -4.58474,2.895928 -4.13868,0.734787 -17.99543,-1.937371 -20.23184,-3.901539 -1.94915,-1.71187 -2.89834,-1.808526 -4.98191,-0.507312 C 154.52782,79.276633 151.83158,80 149.95188,80 c -3.89312,0 -10.0135,2.861117 -12.48137,5.834713 -1.81584,2.187951 -9.80267,31.914847 -9.68095,36.032367 0.11678,3.94985 -11.73334,27.27528 -14.22759,28.00521 -4.91572,1.43855 -11.74026,1.89195 -14.849339,0.98652 z M 44.666667,93.733536 C 39.618835,92.548271 29.992354,89.253491 26,87.344644 23.8,86.292768 19.15,84.243648 15.666667,82.791045 10.971833,80.833228 9.3333335,79.42852 9.3333335,77.361396 c 0,-1.533703 -0.8795858,-4.130969 -1.954635,-5.771701 C 2.5648919,64.242897 9.3049775,36 15.872076,36 c 3.70659,0 4.111618,2.627943 1.276176,8.280216 -2.778748,5.539257 -3.363284,18.247625 -1.039074,22.590452 1.708356,3.192089 9.362804,10.367695 11.119168,10.423581 0.67559,0.02149 2.386029,1.086772 3.800973,2.36728 1.936136,1.752179 5.260904,2.39845 13.438322,2.61215 5.976132,0.156173 15.253544,0.535748 20.616472,0.8435 7.64686,0.438813 10.869502,0.01904 14.935591,-1.945483 2.851648,-1.377767 6.526671,-2.505029 8.166716,-2.505029 3.915844,0 11.94202,-5.485544 11.4961,-7.85709 -0.192052,-1.021398 -1.249185,-2.27448 -2.349185,-2.784624 -1.1,-0.510145 -3.8,-1.782884 -6,-2.828309 -2.230644,-1.059987 -5.079022,-4.100673 -6.439355,-6.874109 -6.248475,-12.739346 7.639765,-24.605002 19.98697,-17.076214 5.12852,3.127147 6.36775,6.495995 4.25881,11.57757 -0.87715,2.113526 -1.44402,6.601334 -1.25972,9.972906 0.32922,6.022862 0.17571,6.273975 -8.772477,14.350235 -5.289389,4.773981 -11.622947,9.107045 -15.107562,10.335744 -3.3,1.163603 -8.1,2.912921 -10.666666,3.887373 -4.890766,1.856811 -24.084805,3.439239 -28.666668,2.363387 z M 188.23242,23.580732 c -3.60172,-3.833865 -3.62426,-5.484004 -0.14163,-10.374905 3.332,-4.6793495 5.19985,-4.8424085 9.01013,-0.786559 3.42255,3.643135 3.6823,7.202517 0.82348,11.284057 -2.66626,3.806631 -6.04076,3.763947 -9.69198,-0.122586 z M 163,23.706007 c -4.23497,-2.042452 -4.04182,-8.05002 0.35138,-10.928555 3.2073,-2.101502 3.4939,-2.053379 6.66666,1.119381 3.94624,3.946242 4.1655,6.253778 0.87698,9.22985 C 168.1101,25.647 167.16795,25.716133 163,23.706007 Z m -70.004328,-3.58626 c -4.424029,-4.687268 -4.518817,-5.8846 -0.744256,-9.40114 3.878792,-3.6136442 6.975514,-3.4303901 9.595234,0.567815 2.97183,4.535573 2.69406,8.183643 -0.80999,10.637973 -3.85532,2.70037 -3.771141,2.719264 -8.040988,-1.804648 z"
       id="path30" />
  </g>
</svg>
