<?xml version="1.0" encoding="UTF-8" standalone="no"?>
<!-- Created with Inkscape (http://www.inkscape.org/) -->

<svg
   version="1.1"
   id="svg2"
   width="238.66667"
   height="108"
   viewBox="0 0 238.66667 108"
   xmlns="http://www.w3.org/2000/svg"
   xmlns:svg="http://www.w3.org/2000/svg">
  <defs
     id="defs6" />
  <g
     id="g8">
    <path
       style="fill:#000000;stroke-width:1.33333"
       d="m 158.67447,100.67607 c -1.15584,-1.392714 -1.49219,-5.970479 -1.11983,-15.241341 0.42474,-10.574366 1.03648,-13.80794 3.02878,-16.009405 2.83133,-3.128591 6.39341,-3.554512 8.98801,-1.074704 0.96905,0.926175 3.3664,2.710189 5.32745,3.964479 1.96104,1.254288 3.96062,3.525301 4.4435,5.046696 1.10781,3.490438 -1.7062,7.028417 -4.92146,6.187608 -2.5434,-0.665115 -2.73941,-0.20619 -4.46341,10.450597 -0.47455,2.933333 -1.48257,6.08333 -2.24008,7 -1.88588,2.28213 -7.03315,2.09775 -9.04296,-0.32393 z M 15.900872,97.880557 C 14.82752,96.587248 14.06167,91.382897 13.891903,84.228572 13.741007,77.869524 12.930805,70.117904 12.091455,67.002751 c -1.879087,-6.97402 -0.696584,-29.38164 1.704019,-32.28998 2.24204,-2.71624 4.871193,-8.983959 4.871193,-11.612586 0,-1.701641 -0.997449,-1.948174 -5.177657,-1.279733 C 6.7748225,22.894095 4.4305465,20.480719 6.1904956,14.306808 8.6267205,5.7605185 19.439054,8.6746619 24.020868,19.112456 26.20475,24.087536 26.343924,26.682531 25.355643,44 24.748816,54.633333 23.670158,65.169223 22.958627,67.413088 21.470336,72.106516 23.453919,76 27.333334,76 c 2.575318,0 5.889561,3.588464 5.957596,6.450531 0.03191,1.342478 -1.264222,1.56311 -5.238342,0.891686 -5.799104,-0.979752 -5.482697,-1.421545 -7.360744,10.277678 -0.937312,5.838949 -2.400894,7.140525 -4.790972,4.260662 z M 40.911265,84.236739 c -2.848138,-0.548502 -3.085928,-8.545311 -0.322303,-10.838915 1.287044,-1.068153 7.125241,-1.526892 17.666667,-1.388168 24.549755,0.323073 32.932936,0.04129 34.845474,-1.171247 0.972272,-0.616416 2.085086,-3.486542 2.47292,-6.378058 C 96.569687,57.037117 91.963159,51.731699 82.656989,49.583576 67.681213,46.126753 60.094396,48.0618 56.917874,56.148433 c -1.905744,4.851556 -2.388591,5.1849 -7.510281,5.1849 -4.485158,0 -5.6842,-0.553936 -6.639851,-3.067486 -1.761228,-4.63238 -0.281892,-9.593627 4.117673,-13.809435 3.608768,-3.458039 4.960255,-3.831757 15.440719,-4.269728 15.775899,-0.659263 24.928277,2.294028 33.243774,10.727105 4.939512,5.009362 6.349932,7.498495 7.118522,12.562932 1.34934,8.891159 -2.3161,17.08689 -8.564133,19.148924 -4.060216,1.339992 -47.751887,2.662814 -53.213032,1.611094 z m 80.862975,-1.486003 c -5.5293,-2.510507 -8.44091,-5.973101 -8.44091,-10.03826 0,-3.637856 3.51752,-3.698964 7.3706,-0.128053 4.92985,4.568824 14.26306,4.76254 19.70318,0.408949 3.18765,-2.550989 3.74589,-3.978636 3.77731,-9.660044 0.0203,-3.666667 -0.59808,-8.316667 -1.37411,-10.333333 -1.18593,-3.081854 -2.19501,-3.666662 -6.32683,-3.666662 -4.31601,0 -16.48348,5.504894 -16.48348,7.457574 0,0.373174 2.12419,1.56604 4.72042,2.650813 2.59623,1.084775 4.42779,2.445797 4.07013,3.024497 -0.6385,1.033124 -16.81707,0.618374 -17.89417,-0.458732 -1.47318,-1.473174 1.61057,-9.812873 5.00882,-13.545874 3.45006,-3.789912 4.66386,-4.23286 12.29472,-4.486698 17.40411,-0.578938 16.89347,-0.753797 20.51507,7.025087 3.74564,8.045357 4.41141,17.984787 1.28501,19.184499 -1.1,0.422109 -2,2.157124 -2,3.855589 0,1.698464 -1.84616,4.934271 -4.10256,7.190681 -3.42444,3.424435 -5.13248,4.097724 -10.33333,4.073282 -3.42693,-0.01611 -8.73237,-1.165098 -11.78987,-2.553315 z m 63.06435,0.56404 C 181.88814,80.364317 181.99012,73.719972 185,72.799329 c 1.28334,-0.392537 9.73742,-0.999401 18.78686,-1.348585 20.59389,-0.794644 22.87981,-1.936568 22.87981,-11.429541 0,-7.94958 -2.40247,-10.684236 -11.5314,-13.125854 -5.70849,-1.526788 -6.65759,-1.444138 -9.73037,0.847352 -1.8727,1.396538 -3.70752,4.27574 -4.07739,6.39823 -0.55579,3.189277 -1.40996,3.930568 -4.92139,4.271017 -4.79542,0.464936 -9.73945,-3.396681 -9.73945,-7.607159 0,-1.390698 2.07468,-4.350138 4.6104,-6.576532 5.79269,-5.086049 13.94125,-6.497018 23.65357,-4.095746 8.63042,2.133781 12.25439,4.311314 16.05271,9.64555 4.07623,5.72454 3.74705,19.336879 -0.62297,25.761664 -3.79608,5.580991 -7.54435,6.716982 -25.02704,7.584987 -7.7,0.3823 -14.97264,1.070141 -16.16142,1.528536 -1.20661,0.465271 -3.12086,-0.126 -4.33333,-1.338472 z M 160.01438,56.683981 c -2.17538,-2.621153 -0.66816,-8.296774 2.46756,-9.292014 3.49706,-1.109928 6.25821,0.245566 7.91722,3.886714 1.14851,2.520686 0.96808,3.547324 -0.92438,5.259984 -2.95106,2.67067 -7.30899,2.737608 -9.4604,0.145316 z"
       id="path30" />
  </g>
</svg>
