<?xml version="1.0" encoding="UTF-8" standalone="no"?>
<!-- Created with Inkscape (http://www.inkscape.org/) -->

<svg
   version="1.1"
   id="svg42"
   width="254.66667"
   height="156"
   viewBox="0 0 254.66667 156"
   xmlns="http://www.w3.org/2000/svg"
   xmlns:svg="http://www.w3.org/2000/svg">
  <defs
     id="defs46" />
  <g
     id="g48">
    <path
       style="fill:#000000;stroke-width:1.33333"
       d="m 21.075082,148.23961 c -1.24204,-0.49845 -4.30366,-3.30628 -6.803602,-6.23961 -3.932639,-4.6144 -4.6725717,-6.63639 -5.4891498,-15 -0.8898778,-9.11437 -0.7902817,-9.66667 1.7431838,-9.66667 2.054764,0 2.900477,1.17645 3.59434,5 1.221764,6.73256 5.310233,14.60118 8.463513,16.28875 4.044772,2.16471 9.394788,1.67045 10.342113,-0.95541 0.462983,-1.28334 1.851758,-3.83334 3.086164,-5.66667 1.415383,-2.10211 2.30701,-6.28826 2.413942,-11.33333 0.167577,-7.90634 1.590163,-15.65778 5.016356,-27.333337 0.968385,-3.3 2.173228,-8.4 2.677427,-11.333333 0.5042,-2.933333 2.084134,-6.996917 3.510966,-9.030185 5.39701,-7.69087 22.595605,-12.925278 27.596921,-8.399148 2.379152,2.153102 2.888374,2.0832 9.642274,-1.323619 3.921759,-1.978223 7.571283,-4.268081 8.110054,-5.088575 0.538771,-0.820493 0.988771,-4.381252 1,-7.912794 0.02539,-7.98568 1.857611,-11.579012 5.904066,-11.579012 4.55682,0 6.26901,2.894832 7.0941,11.994094 0.63914,7.048463 1.24581,8.458218 4.69766,10.91615 2.18006,1.552338 5.84493,3.203876 8.14417,3.670084 3.63936,0.737941 4.23255,1.464736 4.58322,5.615452 0.3956,4.682641 0.30167,4.781365 -5.25906,5.527216 -4.25397,0.570576 -7.57676,-0.04656 -13.36262,-2.481791 -7.903569,-3.326564 -11.781119,-4.045525 -11.781119,-2.184412 0,0.581236 -2.833604,1.814668 -6.296898,2.740957 -5.680715,1.51936 -6.468741,1.449156 -8.052979,-0.71742 -1.676948,-2.293362 -1.93881,-2.29671 -5.811155,-0.07429 C 73.608678,74.952719 70.378554,76 68.660916,76 60.793611,76 53.243438,88.847541 52.59781,103.33333 c -0.444956,9.9834 -3.369684,27.54285 -5.404139,32.44534 -3.060784,7.37564 -11.508667,13.57684 -18.337855,13.46094 -3.037365,-0.0516 -6.538696,-0.50153 -7.780734,-1 z M 111.58899,95.453493 c -3.79565,-3.51769 -3.63269,-7.127325 0.49021,-10.858502 3.2781,-2.966636 8.34751,-1.645363 10.3231,2.690574 1.9385,4.254547 1.1285,6.295691 -3.60887,9.094123 -3.65811,2.160901 -3.90808,2.128765 -7.20444,-0.926195 z m 30.44716,0.193495 c -5.63539,-8.045636 2.70436,-16.265307 9.20965,-9.077048 2.03184,2.245159 2.10008,3.028797 0.53999,6.200784 -2.56961,5.224512 -7.15696,6.577837 -9.74964,2.876264 z m -55.036149,-0.54622 c -4.029235,-2.810651 -3.805573,-7.606889 0.513145,-11.003995 4.228821,-3.32639 6.816159,-3.482049 9.999063,-0.60156 2.231683,2.019644 2.24704,2.436328 0.23342,6.333334 -1.978516,3.829069 -5.455004,7.45951 -7.078961,7.392446 -0.366667,-0.01514 -2.016667,-0.969244 -3.666667,-2.120225 z M 172.66667,77.376135 c -3.47204,-0.626226 -4.05328,-1.358215 -4.40371,-5.545803 -0.4964,-5.932133 1.24415,-6.813284 11.15702,-5.648221 6.95212,0.817085 7.17721,0.970032 6.37609,4.332437 -1.54773,6.496035 -5.03925,8.320745 -13.1294,6.861587 z m 16.24004,-0.987744 c -0.43377,-0.701856 0.23477,-3.326367 1.48564,-5.832247 2.14721,-4.3015 2.70281,-4.578493 9.94099,-4.956016 8.2494,-0.430265 8.95958,-1.303684 6.12269,-7.529969 -2.34157,-5.139194 -16.04537,-12.663922 -23.15935,-12.716751 -4.9516,-0.03677 -8.63001,3.722604 -8.63001,8.819963 0,6.394894 -4.14056,5.763618 -5.56264,-0.848088 -2.05708,-9.564007 1.28017,-15.953506 9.97411,-19.096454 5.76312,-2.083425 21.37417,4.254086 29.81677,12.104504 1.77447,1.65 3.64903,3.013342 4.16569,3.029648 0.51667,0.01631 2.4394,1.202964 4.27274,2.637019 1.83333,1.434055 5.43333,2.625928 8,2.648608 10.23638,0.09045 18.79104,1.760452 19.86054,3.877083 0.595,1.177537 0.55795,4.070436 -0.0823,6.428665 -1.34444,4.951727 -3.155,5.613573 -24.4449,8.935807 -19.75802,3.083189 -30.85877,3.956372 -31.75996,2.498228 z M 151.8565,70 c -3.093,-3.3 -6.41063,-6 -7.3725,-6 -0.96186,0 -2.67046,1.782213 -3.79689,3.960475 -2.55084,4.932773 -6.34055,7.186085 -8.48285,5.043786 -2.49529,-2.495294 -1.80843,-4.490217 2.99945,-8.711594 5.75855,-5.05606 7.3814,-8.118248 6.56519,-12.38795 -0.39532,-2.067957 0.12853,-4.046397 1.33709,-5.049372 1.63084,-1.353478 2.36719,-1.106469 4.10721,1.377767 1.16608,1.664797 2.12014,4.278723 2.12014,5.808724 0,3.783789 2.11021,6.071404 10.33333,11.202011 7.73727,4.827476 7.55465,4.561753 5.61976,8.177141 C 162.93432,77.81594 158.0054,76.560404 151.8565,70 Z m 34.80048,-47.780943 c -5.01176,-2.540977 -6.30066,-5.695317 -3.99031,-9.765518 2.73107,-4.8113821 5.59083,-6.3459793 9.83897,-5.2797615 5.0136,1.2583336 7.32083,6.6544355 4.76494,11.1441475 -2.47891,4.354483 -6.67639,5.89731 -10.6136,3.901132 z"
       id="path70" />
  </g>
</svg>
